<?xml version="1.0" encoding="UTF-8" standalone="no"?>
<!-- Created with Inkscape (http://www.inkscape.org/) -->

<svg
   version="1.1"
   id="svg1"
   width="414"
   height="485"
   viewBox="0 0 414 485"
   sodipodi:docname="battery_supervisor.svg"
   xml:space="preserve"
   inkscape:version="1.4.2 (f4327f4, 2025-05-13)"
   xmlns:inkscape="http://www.inkscape.org/namespaces/inkscape"
   xmlns:sodipodi="http://sodipodi.sourceforge.net/DTD/sodipodi-0.dtd"
   xmlns="http://www.w3.org/2000/svg"
   xmlns:svg="http://www.w3.org/2000/svg"><defs
     id="defs1" /><sodipodi:namedview
     id="namedview1"
     pagecolor="#ffffff"
     bordercolor="#000000"
     borderopacity="0.25"
     inkscape:showpageshadow="2"
     inkscape:pageopacity="0.0"
     inkscape:pagecheckerboard="0"
     inkscape:deskcolor="#d1d1d1"
     showgrid="false"
     inkscape:zoom="0.93556701"
     inkscape:cx="411.51515"
     inkscape:cy="448.39118"
     inkscape:window-width="3840"
     inkscape:window-height="2054"
     inkscape:window-x="-11"
     inkscape:window-y="379"
     inkscape:window-maximized="1"
     inkscape:current-layer="g1" /><g
     inkscape:groupmode="layer"
     inkscape:label="Image"
     id="g1"><path
       id="path115"
       style="fill:#000000"
       d="m 238.73967,446.27447 c -26.96976,-5.82537 -28.48427,-7.3316 -23.94798,-23.81712 l 3.17099,-11.52382 6.63849,0.59154 c 8.18142,0.72903 8.12332,0.67501 4.6385,4.31238 -3.96173,4.13516 -2.73378,4.58194 5.18612,1.88692 21.30833,-7.25087 44.31385,3.49483 44.31385,20.69864 0,8.70103 -18.89546,12.40996 -39.99997,7.85146 z m 45.66667,-7.10369 c -0.3667,-0.36666 -0.6667,-1.6365 -0.6667,-2.82186 0,-7.64594 -6.2886,-16.96414 -14.6229,-21.66777 -6.5398,-3.69079 -7.5794,-9.26751 -2.8771,-15.43259 1.375,-1.80271 2.5,-3.50198 2.5,-3.77613 0,-0.27416 -5.2875,1.27894 -11.74997,3.45133 -29.47193,9.90708 -35.76082,9.30813 -52.19849,-4.97129 l -4.4485,-3.86442 7.25156,-1.64933 7.25155,-1.64933 4.56677,3.27403 c 4.23728,3.03782 5.11726,3.26875 12.19694,3.20077 12.66719,-0.12161 32.13014,-6.74594 32.13014,-10.93567 0,-3.63729 6.2549,-8.49107 10.9422,-8.49107 15.3443,0 32.5518,51.65983 21.0415,63.17014 -2.7443,2.74435 -9.4534,4.02676 -11.317,2.16319 z M 227.3097,387.95076 c -0.79933,-1.29334 1.23085,-2.67089 7.37037,-5.00104 6.33761,-2.40533 6.39943,-2.38554 5.00877,1.60371 -1.23375,3.53913 -10.68795,6.13373 -12.37914,3.39733 z m -66.71633,-8.10226 c -11.96338,-1.4863 -17.10662,-4.76852 -20.73412,-13.23176 -2.43267,-5.67558 -2.2444,-5.83598 5.38042,-4.58377 44.98783,7.38826 144.05727,-27.85455 162.58867,-57.83904 5.1686,-8.36291 9.3606,9.87669 4.4824,19.50324 -14.5151,28.64414 -104.64058,62.00003 -151.71737,56.15133 z m 125.87867,-39.14943 c 15.2008,-9.29528 21.8971,-15.8036 22.9527,-22.30843 1.0575,-6.51657 -0.2003,-7.25266 -4.948,-2.89559 -2.3304,2.13868 -5.8678,5.1257 -7.8608,6.63784 -2.1899,1.66147 -4.8774,5.29582 -6.792,9.18498 -1.8552,3.76833 -4.8833,7.90364 -7.3063,9.97761 -5.4159,4.63587 -4.3356,4.47293 3.9544,-0.59641 z m -172.79453,15.56348 c -1.05094,-1.2663 -1.07493,-2.69871 -0.12245,-7.31019 1.38022,-6.68235 1.57884,-18.11491 0.31472,-18.11491 -0.47845,0 -1.41575,2.8125 -2.08291,6.25 -2.31355,11.92054 -6.29723,17.75758 -11.08265,16.23875 -3.115114,-0.9887 -3.514334,-5.22277 -1.285464,-13.6333 l 2.025884,-7.64456 -3.852484,-7.75678 c -4.19004,-8.43642 -4.67821,-12.41845 -2.32365,-18.95411 1.9803,-5.49683 1.87182,-5.54927 -2.06852,-1 -2.86138,3.30359 -3.63564,3.73885 -4.44714,2.5 -5.4303,-8.29005 9.52305,-23.4299 20.135234,-20.38637 4.17651,1.19781 4.56458,2.71577 1.12749,4.41025 -2.7759,1.3685 -2.7759,1.3685 2.31919,1.93547 15.81746,1.76011 31.19364,35.7791 23.33726,51.63244 -3.63929,7.3437 -5.93235,7.16232 -5.93235,-0.46924 0,-3.31326 -0.54447,-8.40876 -1.20993,-11.32333 l -1.20994,-5.29922 -0.65991,7.62324 c -1.58244,18.28007 -7.47117,27.94246 -12.98238,21.30186 z m 29.06216,-1.12367 c -6.05236,-0.65452 -6.3667,-0.97771 -4.07764,-4.1924 1.13544,-1.59457 2.595,-5.19776 3.24347,-8.00708 0.95376,-4.13192 1.81777,-5.48473 4.52198,-7.08026 3.36323,-1.98435 5.31219,-5.37358 5.31219,-9.23786 0,-1.23644 -2.68508,-4.77343 -6.5931,-8.6849 -3.6262,-3.62941 -7.72849,-8.82465 -9.11619,-11.54498 -2.64918,-5.19322 -12.38979,-16.12657 -15.16684,-17.02402 -0.89313,-0.28863 -2.41117,-1.91206 -3.37343,-3.60763 -1.05341,-1.85618 -3.30674,-3.69452 -5.66305,-4.62011 -4.3676,-1.71564 -10.2534,-17.45532 -23.671614,-63.30219 -3.13894,-10.725 -6.7621,-23.1 -8.05147,-27.5 l -2.34432,-8 2.94888,-2.53849 c 8.78994,-7.56667 45.972884,-24.31466 70.531134,-31.76872 31.97601,-9.70554 58.8949,-15.05421 84.60921,-16.81151 16.32785,-1.11583 15.73072,-1.49635 20.19972,12.87231 2.09491,6.73552 7.47334,23.63866 11.95204,37.56251 8.1607,25.37075 8.6219,28.21684 4.3545,26.87282 -1.5149,-0.47714 -16.64808,-44.31551 -23.15059,-67.06355 l -1.67926,-5.87463 -7.41042,0.47558 c -4.07573,0.26156 -7.62332,0.68847 -7.88353,0.94868 -2.51939,2.51939 52.2399,161.90122 57.4216,167.13094 1.3479,1.36031 13.3547,-11.17827 12.5709,-13.12766 -2.1885,-5.44319 -21.3492,-56.04299 -21.8888,-57.80431 -0.7553,-2.4649 2.6291,-4.01329 4.3197,-1.9763 0.5437,0.65516 3.9615,9.27121 7.5951,19.14677 3.6336,9.87556 8.6241,23.28686 11.09,29.8029 l 4.4834,11.84734 -3.0702,4.78446 c -20.9264,32.61104 -108.44279,64.11556 -162.01337,58.32229 z m 55.54137,-41.18109 c 5.36951,-2.43903 11.86666,-10.12034 8.56018,-10.12034 -0.49415,0 -3.37264,1.3015 -6.39665,2.89222 -3.024,1.59071 -8.69599,3.43159 -12.60442,4.09083 -7.05131,1.18936 -8.06794,2.28071 -3.74815,4.02364 3.58869,1.44796 9.92089,1.0524 14.18904,-0.88635 z m -6.54137,-12.81041 c 23.55072,-7.7154 37.13954,-28.5777 34.23531,-52.55993 -0.51916,-4.28707 0.37003,-4.63488 4.18249,-1.63599 3.35687,2.6405 4.2367,1.88031 2.54649,-2.20021 -2.42864,-5.86327 -10.96248,-8.69427 -17.38588,-5.76757 -2.79104,1.27168 -2.5246,2.85377 0.48061,2.85377 3.12819,0 2.35388,1.26334 -5.30902,8.66205 -17.46195,16.85994 -38.27133,25.39173 -62.09063,25.45699 -12.98458,0.0356 -14.90211,2.56776 -3.26588,4.31272 9.34756,1.40175 16.72631,12.5838 11.51033,17.44322 -6.79082,6.32661 18.66474,8.81801 35.09618,3.43495 z m -23.30696,-2.01951 c -7.29979,-0.6145 -6.96004,-7.38365 0.42317,-8.43132 10.01859,-1.42162 11.17772,-3.58713 1.91304,-3.57397 -7.58397,0.0108 -8.45509,-0.19424 -10.14073,-2.38667 -2.47061,-3.2134 -2.36429,-3.76083 0.86148,-4.4356 22.7283,-4.75432 40.94326,-13.87196 53.5,-26.77984 6.28367,-6.45938 6.67981,-6.27852 3.85456,1.75982 -2.6611,7.57129 -7.28666,13.87485 -13.77746,18.77546 -3.06115,2.31119 -5.07276,4.36648 -4.47025,4.56732 1.97201,0.65733 11.28288,-5.13271 14.88081,-9.25377 3.41027,-3.90609 3.49899,-3.94263 2.84445,-1.1715 -4.56758,19.338 -26.448,32.90335 -49.88907,30.93007 z m -30.99655,-44.0479 c 8.98459,0.43115 9.60988,-0.19629 2.79089,-2.80049 -5.97297,-2.2811 -15.9475,-1.55685 -20.92491,1.51936 -5.2957,3.27292 -4.35373,3.96476 3.18753,2.34109 4.05533,-0.87313 10.02213,-1.29628 14.94649,-1.05996 z m 31.29369,-1.73069 c 1.01059,-1.21768 0.89653,-1.59116 -0.62755,-2.05485 -8.72019,-2.65304 -10.45053,-9.44608 -2.46398,-9.67316 4.17133,-0.1186 4.75459,-1.30969 1.6405,-3.35012 -6.3558,-4.16449 -13.9962,2.62137 -11.49263,10.20724 1.88196,5.70242 9.78525,8.67655 12.94366,4.87089 z m -22.95314,-8.81312 c 8.42893,-13.86027 -4.97163,-43.51376 -20.8085,-46.04617 -10.48096,-1.67598 -20.15103,7.67435 -20.20658,19.53844 -0.0257,5.48113 -0.62743,6.06935 -4.942974,4.83168 -4.65204,-1.33419 -3.77242,1.66463 1.252764,4.27093 4.16974,2.16263 3.52694,3.66265 -1.581754,3.6911 -1.5125,0.008 -2.75,0.44948 -2.75,0.98013 0,1.69187 4.145754,3.25603 7.076454,2.66989 2.26165,-0.45233 3.27072,-0.0194 5.00964,2.14944 l 2.17754,2.71585 -0.68188,-3.77532 c -0.9449,-5.23158 8.03179,-16.56634 10.27165,-12.96989 0.35563,0.57103 2.6716,1.55702 5.1466,2.19109 2.475,0.63408 5.10038,1.35606 5.83418,1.60441 0.91084,0.30827 0.0383,1.92379 -2.75,5.09142 -5.00419,5.68506 -5.00545,5.40352 0.0485,10.88643 6.37504,6.9161 13.46479,7.82644 16.90434,2.17057 z m -37.03549,-25.94871 c 0.005,-12.82368 12.17855,-19.65209 22.50221,-12.62164 4.31159,2.9362 4.34454,3.52778 0.24624,4.42132 -5.49603,1.19829 -13.03702,4.96973 -17.59461,8.79951 -5.36599,4.50908 -5.15571,4.53353 -5.15384,-0.59919 z m 106.35787,8.36434 c 3.37732,-1.58586 8.48062,-3.46467 11.34067,-4.17512 6.03463,-1.49904 6.03017,-2.93905 -0.009,-2.93961 l -4.19098,-3.9e-4 v -11.42465 c 0,-11.42465 0,-11.42465 2.70462,-11.96553 2.79784,-0.55953 5.05343,-3.27712 6.31547,-7.60904 l 0.72833,-2.5 -2.37421,2.17587 c -3.97008,3.63842 -8.80135,4.38807 -6.59687,1.02361 0.94746,-1.44601 1.72266,-3.85414 1.72266,-5.35139 v -2.72227 l -2.88013,2.75934 -2.88013,2.75934 -4.86987,-4.84993 c -18.25984,-18.18506 -45.66669,1.34345 -36.39988,25.93642 2.93974,7.80169 3.5868,7.76196 3.20291,-0.19664 l -0.3271,-6.78129 4.39283,-2.12653 c 5.94614,-2.87848 8.76137,-2.80961 8.76137,0.21434 0,2.02068 0.74998,2.50871 5.48295,3.5679 7.22517,1.61692 7.37733,2.20027 1.81426,6.95544 l -4.7171,4.03206 1.65101,3.46221 c 0.90806,1.90422 3.22109,4.715 5.14007,6.24619 l 3.48905,2.78398 -2.78542,3.55568 c -2.84465,3.63126 -5.07482,7.40296 -5.07482,8.5826 0,0.36212 2.29924,-1.4088 5.10942,-3.9354 2.81018,-2.5266 7.87268,-5.89133 11.25,-7.47719 z m -33.35942,-34.01463 c 0,-12.71502 18.21209,-18.08982 28.25,-8.33722 5.10314,4.95808 5.15585,4.91691 -7,5.46769 -7.49767,0.33972 -12.33835,1.10587 -16,2.53238 -4.81941,1.87754 -5.25,1.9052 -5.25,0.33715 z m -82.179164,-0.97283 c 3.568614,-5.5073 7.318914,-8.64784 14.929164,-12.50185 6.52959,-3.30673 7.38616,-6.62503 1.71016,-6.62503 -9.02455,0 -18.358324,9.25731 -20.059364,19.89503 -0.84072,5.25754 -0.42379,5.1639 3.42004,-0.76815 z m 85.535664,-34.67218 c 6.42747,-1.82023 14.46798,-1.37232 20.51562,1.14286 5.39085,2.24202 5.9158,1.57339 1.69235,-2.15554 -7.10667,-6.27457 -20.75335,-8.35498 -29.31447,-4.46895 -5.78467,2.62576 -5.99234,8.85145 -0.25,7.4946 0.825,-0.19494 4.13542,-1.10078 7.3565,-2.01297 z m -43.37015,171.86863 c -0.008,-1.55283 -0.31339,-3.94442 -0.67974,-5.31464 -0.65249,-2.44049 -0.61651,-2.4584 1.76366,-0.87803 3.02931,2.01139 3.50884,8.13413 0.67973,8.67897 -1.33073,0.25628 -1.75327,-0.3394 -1.76365,-2.4863 z m 180.87012,-24.12082 c -3.6402,-0.31027 -3.6463,-0.3187 -6.7995,-9.50653 -1.7358,-5.05779 -5.8226,-16.166 -9.0818,-24.68491 -6.5229,-17.04941 -6.5171,-17.56204 0.2119,-18.654 8.2675,-1.34163 20.8129,5.31547 20.8129,11.04414 0,3.11414 -0.036,3.11913 -4.664,0.63889 -5.1239,-2.74625 -6.391,-1.31993 -2.1108,2.37595 6.637,5.73086 8.2839,13.77806 5.2582,25.6926 -1.1571,4.55647 2.1115,4.49159 4.7508,-0.0943 4.8045,-8.34815 12.78,-7.70985 9.2277,0.73852 -3.3469,7.95988 -10.5468,13.05127 -17.6054,12.44965 z M 69.739666,295.9756 c -22.42216,-7.34757 -24.21079,-13.7946 -7.50925,-27.0667 7.04534,-5.59868 25.84081,-16.07145 28.8434,-16.07145 1.32108,0 5.53364,9.6716 4.51773,10.37226 -0.19353,0.13348 -3.41537,1.72032 -7.15965,3.52632 -3.74427,1.80599 -8.3138,4.78965 -10.1545,6.63036 -2.57907,2.57907 -4.3435,3.42089 -7.69223,3.67001 l -4.3455,0.32328 3.5,1.71182 c 1.925,0.9415 7.4632,2.91005 12.30712,4.37455 l 8.80711,2.66273 -2.50407,2.61434 c -1.37723,1.43788 -3.20897,4.30183 -4.07053,6.36433 -1.91902,4.59398 -3.02468,4.66152 -14.53963,0.88815 z M 332.73964,280.80607 c 0,-2.27548 1.5294,-2.63741 2.3299,-0.55138 0.2991,0.77948 -0.1027,1.66536 -0.893,1.96862 -0.9493,0.36427 -1.4369,-0.11666 -1.4369,-1.41724 z m -9.5,-31.03645 c -1.65,-1.0569 -3.7609,-1.92401 -4.691,-1.9269 -2.7264,-0.008 -3.0677,-1.76087 -1.2633,-6.48559 4.4862,-11.74709 -2.1986,-15.6105 -28.5105,-16.47728 -16.4649,-0.5424 -16.4649,-0.5424 -18,-3.2924 -4.3306,-7.75766 8.3389,-10.83761 31.8511,-7.74301 29.2364,3.84798 36.3812,12.25002 27.4183,32.24301 -2.8834,6.43192 -2.6819,6.3229 -6.8046,3.68217 z M 75.285056,173.58745 c -7.00008,-22.33086 -9.40718,-40.57611 -5.79539,-43.92773 14.0522,-13.03997 83.337014,-40.837438 91.975944,-36.901278 4.61782,2.10402 11.67309,1.29255 17.92252,-2.06139 3.21835,-1.72723 7.04956,-3.76549 8.5138,-4.52948 4.80962,-2.50947 22.27676,-3.2142 25.28852,-1.02028 2.96416,2.15923 3.29025,3.67728 0.79922,3.72057 -1.52808,0.0265 -1.49638,0.17586 0.25,1.17741 3.78031,2.168 6.00316,6.94178 10.4965,22.542178 l 2.08819,7.25 h 7.45766 c 8.86874,0 8.79378,0.19662 4.93667,-12.94864 -3.05741,-10.419838 -3.06907,-10.051358 0.31793,-10.051358 2.74242,0 2.86647,0.25831 6.36349,13.249998 l 3.56655,13.25 -11.11349,0.69538 c -49.79994,3.11602 -121.09087,24.56997 -155.458784,46.78302 -6.93495,4.48227 -7.05893,4.52743 -7.60933,2.7716 z m 23.96869,-18.93837 c 2.094134,-0.95415 2.488064,-1.66696 1.998724,-3.61666 -2.004574,-7.98684 -2.072544,-7.77833 2.99843,-9.19811 4.63634,-1.2981 4.69118,-1.36211 4.13006,-4.81991 -0.8067,-4.97111 -1.78998,-5.55949 -6.20683,-3.71401 -4.808184,2.00898 -6.019294,1.54159 -6.822904,-2.6331 -1.04162,-5.41111 -1.76185,-6.02201 -5.54491,-4.70323 -3.34593,1.1664 -3.89592,4.94281 -1.59363,10.94247 0.40419,1.05332 -0.65778,1.90327 -3.69188,2.95479 -4.59644,1.59298 -5.42444,3.15392 -3.85818,7.27349 0.99794,2.6248 1.02733,2.63146 5.16607,1.17123 5.73965,-2.02507 5.74234,-2.02391 7.01529,3.03141 1.19686,4.75317 2.1571,5.24928 6.40976,3.31163 z M 201.26592,112.71365 c 13.36156,-3.34614 14.68913,-4.46423 11.1109,-9.35774 -1.49568,-2.04548 -27.30004,3.43947 -28.2875,6.01276 -2.46193,6.41567 1.68791,7.22381 17.1766,3.34498 z m -135.521134,5.3738 c 0.0165,-15.31535 38.337124,-37.087118 82.299104,-46.758078 9.2288,-2.03019 8.77712,-2.26947 7.56755,4.00887 -0.52972,2.74956 -0.74464,6.15761 -0.4776,7.57343 0.47644,2.52607 0.23878,2.64092 -12.70432,6.13927 -23.29423,6.29613 -54.371214,19.532348 -69.584184,29.637068 -7.64137,5.07554 -7.10672,5.12076 -7.10055,-0.60056 z m 3.63084,-24.320178 c -2.06418,-10.3209 4.01894,-18.25832 16.07713,-20.97788 6.2828,-1.417 14.632614,4.09884 12.92825,8.54034 -0.74819,1.94975 -4.53236,1.95528 -5.27971,0.008 -1.69678,-4.42173 -11.94614,-0.17255 -10.99959,4.56022 0.4965,2.48249 -0.0238,3.22762 -4.49904,6.44274 -7.01287,5.03824 -7.48827,5.12069 -8.22704,1.42686 z m 161.029424,-4.47723 c -8.14007,-2.98567 -15.854,-10.0153 -14.91799,-13.59462 0.58929,-2.25342 1.89902,-2.32148 6.63049,-0.34455 4.97591,2.07907 4.54227,0.52016 -0.92786,-3.33554 -5.33278,-3.75889 -5.14065,-4.55976 1.50233,-6.2623 6.08815,-1.56035 5.60346,-2.91558 -1.04275,-2.91558 -7.1512,0 -7.60077,-2.14547 -1.58991,-7.58746 16.23646,-14.69981 28.72786,-11.59235 22.83622,5.68091 -2.68089,7.8599 -3.39849,11.17451 -2.26799,10.47582 1.14583,-0.70816 1.73761,1.11665 2.61927,8.07662 1.28485,10.14297 -3.00126,13.41608 -12.84181,9.8067 z m -66.87517,-2.51018 c -3.38697,-1.97455 -3.03468,-15.93721 0.45655,-18.09491 0.78142,-0.48295 0.61565,-2.87763 -0.57401,-8.2917 -4.17362,-18.99405 0.53445,-23.98577 14.03587,-14.88151 14.12906,9.52748 16.51132,15.96117 5.76711,15.57497 l -6.97573,-0.25075 6.25,3.12469 c 7.02444,3.51186 7.40849,4.14721 3.5,5.79007 -1.5125,0.63575 -3.875,2.03036 -5.25,3.09912 l -2.5,1.94322 3.4934,-0.97781 c 5.96207,-1.66878 8.0066,-1.29747 8.0066,1.45411 0,5.95963 -20.37931,14.90957 -26.20979,11.5105 z m 32.74575,-10.90267 c -2.23289,-2.46732 -1.84403,-14.59995 0.51579,-16.09289 2.48687,-1.5733 4.78457,-1.03794 5.52239,1.28673 l 0.70891,2.23357 0.82625,-2.23357 c 2.05836,-5.56429 6.8907,-0.46847 6.8907,7.26642 0,8.91806 -8.98026,13.59924 -14.46404,7.53974 z m -7.28596,-28.69921 c -6.26448,-6.59438 -6.13335,-5.76992 -1.22976,-7.73195 12.10286,-4.8426 23.97976,0.78353 23.97976,11.3593 0,3.37897 -3.43044,2.44972 -5.28077,-1.43047 -1.16887,-2.45115 -2.61048,-3.72275 -4.93521,-4.3532 -4.40486,-1.19456 -4.89601,-0.73674 -4.15838,3.87615 0.91505,5.72239 -1.8439,5.15588 -8.37564,-1.71983 z" /></g></svg>
