<?xml version="1.0" encoding="UTF-8" standalone="no"?>
<!-- Created with Inkscape (http://www.inkscape.org/) -->

<svg
   version="1.1"
   id="svg1"
   width="414"
   height="485"
   viewBox="0 0 414 485"
   sodipodi:docname="battery_supervisor_pointing.svg"
   xml:space="preserve"
   inkscape:version="1.4.2 (f4327f4, 2025-05-13)"
   xmlns:inkscape="http://www.inkscape.org/namespaces/inkscape"
   xmlns:sodipodi="http://sodipodi.sourceforge.net/DTD/sodipodi-0.dtd"
   xmlns="http://www.w3.org/2000/svg"
   xmlns:svg="http://www.w3.org/2000/svg"><defs
     id="defs1" /><sodipodi:namedview
     id="namedview1"
     pagecolor="#ffffff"
     bordercolor="#000000"
     borderopacity="0.25"
     inkscape:showpageshadow="2"
     inkscape:pageopacity="0.0"
     inkscape:pagecheckerboard="0"
     inkscape:deskcolor="#d1d1d1"
     showgrid="false"
     inkscape:zoom="0.93556701"
     inkscape:cx="69.476584"
     inkscape:cy="362.88154"
     inkscape:window-width="3840"
     inkscape:window-height="2054"
     inkscape:window-x="-11"
     inkscape:window-y="379"
     inkscape:window-maximized="1"
     inkscape:current-layer="g1" /><g
     inkscape:groupmode="layer"
     inkscape:label="Image"
     id="g1"><path
       style="fill:#000000"
       d="m 333.14053,464.2525 c -35.02415,-6.66836 -43.16621,-13.44374 -34.12472,-28.39676 3.82032,-6.31814 3.85509,-6.46608 2.4513,-10.43127 -0.78318,-2.21224 -2.80202,-9.17813 -4.48629,-15.47976 -1.68428,-6.30163 -3.28551,-12.03913 -3.5583,-12.75 -0.37661,-0.98144 1.20309,-1.29249 6.56401,-1.29249 7.05999,0 7.05999,0 7.93451,3.25 0.48099,1.7875 2.40541,9.18607 4.2765,16.44126 l 3.40198,13.19126 -2.23864,2.38293 c -3.18262,3.38774 -2.00655,3.74893 4.55396,1.3986 23.85377,-8.54571 54.0546,7.17416 48.15075,25.063 -1.92954,5.84656 -18.98466,9.27738 -32.92506,6.62323 z M 184.94266,453.77822 c -10.92586,-3.10242 -11.68081,-12.54307 -1.85544,-23.20234 8.64015,-9.37346 23.08996,-12.08043 38.62698,-7.23624 9.65538,3.0104 10.97488,2.7896 7.15846,-1.19785 -2.4003,-2.50786 -7.57077,-18.68201 -10.27337,-32.13693 -0.75721,-3.76978 -0.47716,-3.80031 9.70639,-1.05817 4.25252,1.14509 3.79572,0.012 8.18838,20.31067 2.25468,10.41896 3.06195,12.49867 6.66372,17.16723 8.42239,10.91698 7.36675,15.85301 -4.44588,20.78852 -15.20756,6.35396 -42.69388,9.70998 -53.76924,6.56511 z m 174.98352,-68.65603 c -7.38208,-5.47361 -9.4902,-8.21997 -6.30968,-8.21997 1.45992,0 18.00947,11.35843 19.0849,13.0985 1.97316,3.19265 -5.99222,0.15087 -12.77522,-4.87853 z m 6.14903,-4.84293 c -5.18908,-3.64262 -9.5322,-6.70264 -9.65139,-6.80003 -0.11918,-0.0974 1.34687,-2.37626 3.25788,-5.06415 3.12146,-4.39039 5.47344,-10.37927 6.88168,-17.52293 0.27643,-1.40225 1.8393,-3.30429 3.5411,-4.30956 4.20825,-2.48588 6.27457,-6.89685 5.87552,-12.54246 -0.27511,-3.89206 0.25614,-5.6028 3.30348,-10.63791 5.1503,-8.50981 8.43067,-15.2936 9.913,-20.5 0.70466,-2.475 1.57449,-4.84665 1.93296,-5.27033 1.35864,-1.60582 26.51287,17.76002 26.48868,20.3932 -0.0205,2.23317 -40.20446,68.84913 -41.54291,68.86882 -0.31092,0.005 -4.81092,-2.97202 -10,-6.61465 z m -116.93468,-0.86604 c -57.24443,-5.74339 -96.69623,-23.84245 -95.88124,-43.98684 0.28791,-7.11643 0.15029,-7.07608 7.88124,-2.31057 27.96613,17.23888 85.39011,29.90789 124.22265,27.40629 9.72265,-0.62633 9.72265,-0.62633 11.20595,2.24205 0.81581,1.57761 3.15892,3.66352 5.2069,4.63535 4.38695,2.08175 3.17361,3.72518 -4.10461,5.55958 -5.73016,1.44423 -9.05179,3.09826 -5.03089,2.50518 12.23987,-1.80537 18.06839,-1.69644 19.94093,0.3727 1.02797,1.1359 1.6868,2.069 1.46405,2.07357 -0.22274,0.005 -5.35498,0.67078 -11.40498,1.48048 -13.08347,1.75101 -36.17357,1.76059 -53.5,0.0222 z m 82.04312,-1.61869 -2.45687,-0.98091 2.76194,-1.81181 c 2.70067,-1.77162 6.36114,-6.09959 5.15885,-6.09959 -0.3335,0 -2.04652,0.74639 -3.8067,1.65865 -7.1415,3.70122 -14.46749,3.46611 -18.13087,-0.58188 -1.66754,-1.84261 -1.57315,-1.98234 2.60009,-3.84921 4.43127,-1.9823 10.29796,-7.28497 6.54335,-5.91428 -17.47126,6.37824 -27.52394,1.77441 -24.09061,-11.03277 0.70769,-2.63986 6.3777,-0.58694 6.3777,2.30916 0,4.30139 13.70696,-7.22029 16.46459,-13.83967 1.56127,-3.74766 1.01401,-4.8286 -1.28215,-2.53244 -3.45962,3.45962 -16.55955,0.18337 -19.23183,-4.80983 -3.07295,-5.74186 -0.76384,-7.53662 8.82693,-6.86075 7.33287,0.51676 9.66344,0.28319 14.62901,-1.46614 7.16316,-2.52353 11.46522,-2.57824 18.25405,-0.23212 l 5.1606,1.78342 -2.47583,-3.24598 c -2.43563,-3.19327 -2.44336,-3.26335 -0.47634,-4.31606 10.43314,-5.58365 28.17137,13.21595 22.61253,23.96556 -1.89578,3.66603 -2.06163,3.57966 -5.68505,-2.96078 -2.64396,-4.77246 -3.74018,-3.62987 -2.04981,2.13653 5.35874,18.28039 -14.85848,44.60787 -29.70358,38.6809 z m -73.04312,-24.59307 c -36.70186,-2.86558 -74.70039,-13.45074 -95.07661,-26.48525 -8.71638,-5.5758 -9.0368,-6.07457 -8.45043,-13.15404 0.28061,-3.38797 0.98231,-12.45995 1.55932,-20.15995 3.70931,-49.49951 17.5479,-156.42452 21.61755,-167.02986 3.62973,-9.45893 79.47622,-5.87331 127.96158,6.04934 23.23133,5.71264 57.39127,18.43978 59.75408,22.26289 0.35378,0.57243 -0.90928,11.99307 -2.80679,25.37921 -1.89752,13.38613 -4.23186,30.86342 -5.18742,38.83842 -1.95827,16.3434 -2.0433,16.5622 -5.77559,14.86165 -2.40336,-1.09504 -2.64384,-1.63567 -2.1342,-4.79787 0.3159,-1.96008 1.6911,-12.11378 3.05599,-22.56378 1.36489,-10.45 3.54202,-25.525 4.83806,-33.5 2.68063,-16.49479 3.00274,-15.46869 -6.05429,-19.28585 -5.61684,-2.36727 -6.24922,-2.453 -6.73653,-0.91333 -1.05227,3.32468 -8.52457,53.07378 -10.97827,73.09113 -2.81472,22.96266 -2.56684,22.238 -6.5896,19.26385 -7.13855,-5.27776 -12.68827,-3.50718 -17.99685,5.74169 -1.925,3.35383 -4.26774,6.34797 -5.20608,6.65364 -0.93835,0.30567 -2.80821,1.86557 -4.15524,3.46643 -2.23432,2.65533 -2.87416,2.86594 -7.29392,2.40088 -11.21871,-1.18046 -18.06337,9.8228 -11.82697,19.01265 2.4885,3.66701 2.49621,3.74136 0.66273,6.38955 -2.66368,3.84728 -3.30002,6.08756 -2.2738,8.00508 0.67495,1.26115 -0.59183,4.05209 -5.07336,11.17756 -8.62484,13.71319 -8.47399,14.0896 11.01942,27.49672 l 10.17771,7 -0.62958,5 c -0.34627,2.75 -0.82969,5.3375 -1.07426,5.75 -0.4305,0.72608 -26.19785,0.76199 -35.32665,0.0492 z m -19,-54.12492 c 0,-5.0888 -17.6499,-10.71095 -20.99018,-6.68615 -1.4733,1.77521 -1.06408,1.97151 7.1009,3.40642 3.0859,0.54231 7.1359,1.65117 9,2.46414 4.05217,1.76723 4.88928,1.90687 4.88928,0.81559 z m 25.90784,-12.62666 c 21.45149,-11.093 -13.02611,-41.85316 -45.22883,-40.35216 -10.04886,0.46838 -23.13585,5.8045 -14.23572,5.8045 5.03185,0 6.38133,14.2108 2.05115,21.5997 -2.92872,4.99747 -2.75975,5.16938 6.19139,6.29887 3.74779,0.47291 12.88917,2.45805 20.31417,4.41142 19.83312,5.2177 24.49274,5.55505 30.90784,2.23767 z m -22.89423,-4.63011 c -18.12959,-4.08857 -20.56199,-5.58539 -14.26361,-8.77739 7.45353,-3.77743 16.52327,-3.58421 13.31325,0.28363 -1.63441,1.96934 -1.24127,1.96637 3.52869,-0.0266 8.0626,-3.36877 20.40806,-0.4906 20.40806,4.75785 0,5.9567 -7.68163,7.21408 -22.98639,3.76256 z m -9.51361,-20.91907 c -11.42384,-1.71816 -17.5,-4.515 -17.5,-8.05518 0,-5.97807 37.90093,1.45726 39.79398,7.8067 0.42256,1.4173 -13.49156,1.57238 -22.29398,0.24848 z m -1.16094,-27.67087 c 0.36981,-0.36982 -0.73644,-1.84853 -2.45834,-3.28604 -7.1105,-5.93611 -2.59085,-11.971 6.36928,-8.50461 2.77211,1.07244 2.14745,-2.07916 -0.88486,-4.46438 -5.84897,-4.60079 -14.36514,-0.19755 -14.36514,7.42742 0,5.86892 8.03915,12.12751 11.33906,8.82761 z m 70.41399,-3.56844 c -0.7068,-2.12042 -6.20134,-4.72528 -12.3575,-5.85848 -3.24256,-0.59688 -6.00078,-1.18644 -6.12939,-1.31013 -0.12861,-0.12369 1.09672,-3.34466 2.72295,-7.15772 4.26428,-9.99858 4.12125,-10.66141 -2.98911,-13.85235 -7.23049,-3.24485 -7.2855,-3.54855 -1.25,-6.9012 8.12871,-4.51542 7.78143,-3.95013 5.42126,-8.82472 -1.15961,-2.39501 -3.36004,-5.13009 -4.88983,-6.07796 l -2.78143,-1.72339 5.09996,-0.0266 c 10.22155,-0.0533 17.13867,8.23231 18.32832,21.95448 l 0.65185,7.51891 1.20993,-5.29922 c 0.66547,-2.91457 1.20994,-6.17707 1.20994,-7.25 0,-1.59009 0.69843,-1.95078 3.77749,-1.95078 2.07762,0 4.89012,-0.76685 6.25,-1.7041 4.39145,-3.02669 6.87498,-7.38444 3.03825,-5.33108 -1.06385,0.56935 -3.87635,1.03019 -6.25,1.02409 l -4.31574,-0.0111 3.37081,-2.65595 c 2.87851,-2.26804 6.12919,-7.55936 6.12919,-9.97685 0,-0.39556 -1.2375,0.46135 -2.75,1.90426 -6.25415,5.9664 -12.76675,6.07458 -8.74299,0.14524 3.9903,-5.88003 3.48927,-9.6059 -0.7362,-5.47471 -3.74898,3.66532 -6.78075,4.68042 -9.55096,3.19785 -23.16229,-12.39609 -44.73523,18.46049 -31.45061,44.98496 l 3.20409,6.39737 -2.73667,2.33245 c -2.20738,1.88134 -2.34985,2.22983 -0.73666,1.80188 11.27087,-2.98998 22.38245,-3.05517 31.5,-0.1848 5.70543,1.79617 6.25848,1.82594 5.75305,0.30964 z m -93.85039,-9.54341 c -0.61285,-0.98134 -2.68886,-2.81641 -4.61336,-4.07795 -3.49909,-2.29371 -3.49909,-2.29371 -1.39505,-4.25391 8.06129,-7.51024 8.88077,-17.18191 1.73308,-20.45423 -7.0441,-3.2249 -7.5422,-2.09971 4.66892,-10.54697 1.05439,-0.72939 -1.66205,-6.43325 -4.58754,-9.6327 -1.93998,-2.12164 -1.95132,-2.25 -0.19875,-2.25 6.43033,0 13.16354,6.39521 16.13408,15.32418 l 1.38924,4.17582 -0.42185,-6.25039 c -0.84347,-12.49745 -8.9509,-20.25816 -19.67679,-18.83532 -5.8032,0.76982 -8.224,-0.26327 -11.07915,-4.72811 l -2.03748,-3.18618 0.53887,4 c 0.29638,2.2 0.83982,5.0125 1.20763,6.25 1.29125,4.3444 -3.97278,1.84667 -7.84527,-3.7225 l -1.71924,-2.47251 v 3.08296 c 0,1.69563 1.11143,4.72076 2.46986,6.72251 2.8156,4.14902 1.84104,4.60211 -3.75842,1.74734 -4.23793,-2.16061 -4.45803,-1.84446 -1.77701,2.55242 1.13089,1.85465 3.43173,3.70434 5.56938,4.47733 3.17117,1.1467 3.56776,1.64349 3.06533,3.83978 -2.3025,10.06485 -1.58273,20.22313 2.02921,28.63868 0.28806,0.67118 -1.23044,1.3926 -3.80969,1.80993 -5.3851,0.87132 -3.54186,2.08895 4.32109,2.85446 3.08537,0.30038 8.71037,1.88929 12.5,3.5309 8.30862,3.59916 8.71205,3.67686 7.29291,1.40446 z m 74.16002,-55.05303 c 12.4449,-6.31966 19.10496,-7.92918 26.11479,-6.31112 6.25919,1.4448 7.10726,0.90029 2.7371,-1.75736 -8.48315,-5.15892 -18.6407,-4.68163 -33.78535,1.58752 -6.70144,2.77407 -9.457,3.42868 -12.83167,3.0483 -4.17986,-0.47113 -4.29755,-0.4056 -4.29755,2.39277 0,8.31974 7.07065,8.653 22.06268,1.03989 z m -57.22829,-3.75928 c 3.06628,-2.14771 2.50679,-5.54526 -1.06968,-6.49571 -1.50441,-0.39979 -5.09279,-2.78919 -7.97418,-5.30976 -9.26748,-8.10696 -17.75018,-10.45141 -25.31908,-6.99768 l -3.97145,1.81219 4,0.30028 c 9.42278,0.70737 10.72955,1.30504 17.94008,8.20522 10.94002,10.46913 12.44794,11.2496 16.39431,8.48546 z m 77.04372,179.42766 c -20.27253,-14.09155 -27.87811,-20.04373 -27.87811,-21.81761 0,-2.21567 9.12923,-17.22324 10.81985,-17.78678 2.80344,-0.93448 2.03202,3.05685 -1.74745,9.04122 -5.30994,8.40769 -5.32986,8.33443 3.98545,14.65459 4.39576,2.98239 8.91823,6.92074 10.04994,8.75189 1.36878,2.21474 4.03521,4.2494 7.96452,6.07748 5.51114,2.564 7.13449,4.38422 5.0558,5.66892 -0.47953,0.29637 -4.19203,-1.769 -8.25,-4.58971 z m -12.26257,-18.37925 c -7.28791,-4.95479 -7.19474,-4.67096 -3.5392,-10.78263 3.1713,-5.30205 3.44868,-5.50443 7.31934,-5.34006 l 4.02312,0.17083 10.7728,-17.5 c 10.81764,-17.57283 12.08236,-20.69781 9.3084,-23 -2.11868,-1.75834 -1.95,-2.46949 2.1683,-9.14167 4.34039,-7.03198 2.98813,-7.30563 18.60347,3.76463 20.86066,14.78885 23.67016,17.90804 25.29774,28.08641 1.30687,8.17268 -5.36068,21.88312 -10.06751,20.70178 -3.85475,-0.96748 -8.96986,0.36634 -11.93175,3.11132 -2.14489,1.98782 -3.71931,2.47753 -7.96523,2.47753 -2.91056,0 -7.94987,0.92079 -11.19847,2.04619 -5.21512,1.80666 -6.65651,1.9171 -12.31301,0.94349 -7.83354,-1.34835 -11.4202,-0.1767 -13.89224,4.53813 l -1.7013,3.24482 z m 76.57226,-4.99207 -5.3122,-5.30539 3.08839,-4.2634 c 10.73433,-14.8183 7.38575,-27.70907 -12.19733,-46.95519 -12.89085,-12.66903 -14.26724,-15.52825 -9.5781,-19.89685 3.89815,-3.63168 6.8186,-2.69811 16.31144,5.21421 28.03972,23.37123 33.52465,45.50004 17.59754,70.99683 -4.24881,6.80167 -3.3289,6.78219 -9.90974,0.20979 z m -77.41945,-19.77366 c -5.31604,-3.57964 -5.52553,-4.16128 -2.76835,-7.68613 2.58491,-3.30462 2.49395,-4.94192 -0.5,-9 -5.87458,-7.96253 -0.16924,-15.17948 9.29468,-11.75728 3.31846,1.19997 3.5362,1.12351 6.32974,-2.22269 l 2.89306,-3.46542 3.46691,1.86706 c 7.21344,3.88469 7.26904,3.48657 -2.83583,20.30599 -10.18166,16.94722 -9.37436,16.33929 -15.88021,11.95847 z m 4.12645,-20.05938 c 1.36658,-1.64663 0.54721,-4.24315 -1.59887,-5.06668 -3.46001,-1.32773 -5.75013,3.49356 -2.54593,5.35983 2.32931,1.35671 2.80337,1.32318 4.1448,-0.29315 z m 17.60853,-16.62136 c -0.90283,-1.46079 6.33388,-13.00539 8.1524,-13.00539 1.76101,0 1.82743,-0.19246 -2.50185,7.24997 -3.6435,6.26352 -4.68249,7.32179 -5.65055,5.75542 z M 134.14053,252.3759 c -9.158,-2.26403 -20.63916,-7.51328 -31.64586,-14.46868 -2.14586,-1.35601 -2.14586,-1.35601 1.25,-6.29272 1.86772,-2.71518 3.39585,-5.56121 3.39585,-6.32449 0,-1.89079 -0.15251,-1.93876 9.30058,2.92545 12.60045,6.48373 18.66737,8.16299 29.53793,8.17578 l 9.3385,0.011 -0.66431,6.5 c -1.17648,11.51134 -0.79338,11.01175 -8.3711,10.91669 -3.65288,-0.0458 -9.11659,-0.69518 -12.14159,-1.44301 z M 83.140522,235.45938 c 0,-0.24356 0.94445,-2.04356 2.09878,-4 2.36357,-4.00595 1.91189,-4.39992 -1.94441,-1.69596 -6.03613,4.23242 -13.68774,4.93182 -21.40437,1.95649 -3.48663,-1.34435 -3.44511,-1.91491 0.29418,-4.0429 3.76897,-2.14489 6.01173,-7.09306 4.92786,-10.87229 -0.91733,-3.19854 2.78657,-7.93962 3.83752,-4.91211 0.80979,2.33278 5.86944,7.00961 7.58338,7.00961 1.22664,0 1.03558,-0.75331 -0.92307,-3.63954 -2.9535,-4.35223 -3.17063,-7.91505 -0.56728,-9.30832 2.44864,-1.31048 6.09741,-8.83836 6.09741,-12.57975 0,-2.73336 -0.12648,-2.6458 -2.25,1.55765 -4.82701,9.55495 -18.75,12.1959 -18.75,3.55656 0,-2.27459 11.80069,-17.53866 14.51545,-18.77559 11.14278,-5.07699 24.579448,20.74979 18.04732,34.68899 -0.81559,1.74043 -0.73221,1.83347 0.64242,0.71685 0.8688,-0.70574 2.13967,-2.6352 2.82416,-4.28769 1.42612,-3.44296 2.854278,-3.36186 4.907168,0.27866 3.02825,5.37021 -1.86305,17.80436 -8.858198,22.51839 -2.90683,1.95891 -11.07832,3.30945 -11.07832,1.83095 z m -36,-11.13522 c -8.95166,-2.86206 -13.4142,-9.73805 -9.65583,-14.87794 1.28095,-1.75179 1.68708,-1.66671 8.63436,1.80887 4.49395,2.24823 8.72594,3.64713 11.03339,3.64713 7.06612,0 8.12043,6.79328 1.48461,9.5659 -4.15265,1.73509 -5.67922,1.71597 -11.49653,-0.14396 z m 5.88229,-14.80251 c -17.4402,-6.23226 -20.48398,-19.54411 -4.71468,-20.61943 l 7.33239,-0.5 -10.3286,-5.38311 c -17.24999,-8.99044 -25.26544,-17.33562 -22.18288,-23.09544 2.82547,-5.27942 8.66412,-3.66318 21.46119,5.94081 5.70694,4.28297 13.11541,9.45117 16.46327,11.48488 7.13904,4.33674 6.94569,3.70974 2.83702,9.2 l -3.25,4.34285 -6.6191,-0.6113 c -7.74927,-0.71569 -9.99567,0.83271 -3.61848,2.49415 5.77671,1.505 6.3357,2.03052 7.04919,6.62716 0.39401,2.53841 1.58115,4.83425 3.24891,6.28313 5.07452,4.40853 0.42452,6.73182 -7.67823,3.8363 z M 360.14053,143.77607 c -28.70568,-13.4006 -58.43739,-21.31299 -103.3928,-27.51555 -14.76892,-2.03768 -59.53095,-2.41365 -69.54861,-0.58415 -8.16395,1.49096 -7.8047,2.47391 -4.75545,-13.01166 4.2369,-21.517039 6.65619,-28.847969 10.19686,-30.898409 13.95032,-8.07881 97.50793,-2.89676 107.5,6.66691 5.14874,4.92799 8.17371,5.76244 21.5,5.93085 11.80842,0.14922 12.10908,0.2106 18.83305,3.8449 3.75818,2.0313 7.45912,3.69326 8.22432,3.69326 0.7652,0 2.07782,1.32766 2.91695,2.95034 1.90329,3.68058 1.91592,4.41339 0.0638,3.70267 -1.23631,-0.47442 -1.21514,-0.0435 0.13721,2.792349 1.50549,3.15705 1.44358,4.15798 -1.05774,17.10103 -1.46126,7.56124 -2.5355,13.85782 -2.38721,13.99239 0.68684,0.6233 14.11498,6.44852 14.33835,6.22007 0.1392,-0.14237 0.99542,-3.18385 1.90272,-6.75885 3.87763,-15.27888 3.29496,-14.06355 6.12444,-12.77435 1.88725,0.85989 2.39411,1.68384 1.97791,3.21526 -0.30779,1.1325 -1.55549,7.12159 -2.77268,13.30909 -1.21718,6.1875 -2.45787,11.22935 -2.75709,11.20411 -0.29922,-0.0252 -3.46903,-1.41135 -7.04403,-3.08026 z m -19.60699,-28.45563 c 2.10913,-5.4963 0.92735,-7.18561 -6.14301,-8.7812 -3.7125,-0.83781 -10.03226,-2.26444 -14.04391,-3.1703 -8.84979,-1.99832 -10.20609,-1.60976 -10.20609,2.9239 v 3.45338 l 14.25,3.47764 c 7.8375,1.9127 14.53935,3.5228 14.89301,3.578 0.35365,0.0552 0.91615,-0.61144 1.25,-1.48142 z m -126.90251,-8.40286 c 0.3347,-0.54155 0.94132,-2.90405 1.34804,-5.25 l 0.7395,-4.265359 h 5.46098 5.46098 l 0.30749,-4.25 c 0.29384,-4.06113 0.18274,-4.2506 -2.5,-4.26365 -6.70162,-0.0326 -7.35962,-0.69148 -6.6574,-6.66631 l 0.64045,-5.44923 -4.39527,0.3146 c -3.84694,0.27535 -4.4302,0.62648 -4.67523,2.81459 -0.77303,6.90315 -0.86564,7 -6.69378,7 -5.40087,0 -5.43976,0.022 -6.08007,3.43512 -0.88169,4.69979 -0.0655,5.56488 5.2505,5.56488 h 4.57867 l -0.63824,5.430379 c -0.59645,5.07491 -0.49091,5.45875 1.61232,5.86382 4.08482,0.78671 5.62505,0.71789 6.24106,-0.27884 z m 154.08526,2.91702 c -3.46299,-3.04054 -10.57576,-15.929949 -10.57576,-19.164859 0,-4.08667 2.99142,-4.18179 7.04456,-0.224 4.55726,4.45005 4.96756,3.76908 1.44339,-2.39559 -3.56001,-6.22738 -3.38316,-6.50754 3.6085,-5.71652 7.05678,0.79838 7.21238,-0.38424 0.3932,-2.98851 -10.00288,-3.82013 -1.37216,-9.4429 14.49447,-9.4429 15.49417,0 17.80694,6.97791 6.35437,19.17196 -4.73428,5.0408 -6.33849,7.47279 -6.33849,9.60915 0,11.150299 -9.26267,17.439209 -16.42424,11.151269 z M 344.45435,83.952001 c -6.01444,-3.66726 -6.38836,-8.87142 -1.11878,-15.57061 3.75357,-4.77188 9.80496,-5.04067 9.80496,-0.43551 0,1.71761 0.25705,1.81276 1.98383,0.73437 5.96667,-3.72625 6.19047,8.27618 0.26985,14.47197 -3.11616,3.26099 -6.49792,3.50822 -10.93986,0.79978 z m -32.81382,-5.97849 c -10.47092,-2.52694 -10.82053,-8.97493 -1.00393,-18.51558 4.1638,-4.04675 4.89002,-5.61741 7.51823,-16.26024 3.48333,-14.10559 13.03972,-13.157972 20.45188,2.02803 6.60771,13.53781 5.52067,20.94775 -2.1925,14.94544 -5.80706,-4.519 -7.97354,-5.01895 -5.08663,-1.17382 6.35215,8.46054 6.69505,10.16571 1.97193,9.80586 -7.54131,-0.57455 -8.88669,0.17301 -3.65898,2.03311 4.61315,1.64144 6.03568,3.78464 3.94457,5.94294 -1.67424,1.72802 -16.40983,2.52996 -21.94457,1.19426 z M 288.8373,66.888521 c -15.56075,-4.67284 -74.50353,-7.52487 -88.94677,-4.30382 -2.71117,0.60462 -4.75,0.67171 -4.75,0.1563 0,-18.49906 45.11948,-23.451163 102,-11.19504 9.78085,2.10749 9.57536,1.86615 5.57162,6.54362 -1.90532,2.22594 -3.74914,5.3444 -4.09738,6.92991 -0.68622,3.12435 -3.68702,3.69797 -9.77747,1.86903 z m 73.96989,-2.65296 c -0.36666,-0.36667 -0.66666,-2.57667 -0.66666,-4.91111 0,-3.51193 -0.53098,-4.69123 -3.07673,-6.83333 -4.09082,-3.4422 -4.62783,-3.29711 -5.43287,1.46788 -1.11928,6.62499 -4.293,5.17417 -6.68681,-3.05678 -1.03972,-3.575 -2.16689,-7.3584 -2.50483,-8.40755 -1.61014,-4.998824 18.33413,1.86319 21.13011,7.27001 3.38476,6.54541 1.12916,18.36224 -2.76221,14.47088 z m -150.3793,-25.02686 c -2.0055,-5.226252 4.32484,-13.517776 11.44125,-14.98583 13.63249,-2.812262 23.27139,1.561532 23.27139,10.559741 0,4.657123 -4.27777,5.133362 -5.41486,0.602831 -1.42133,-5.66304 -11.5793,-5.846671 -12.90093,-0.233217 -0.5643,2.396793 -1.47854,3.78045 -2.53355,3.834382 -0.90787,0.04641 -4.28441,0.412713 -7.50342,0.814005 -4.45686,0.555605 -5.97371,0.414432 -6.35988,-0.591912 z"
       id="path146" /></g></svg>
