<svg xmlns="http://www.w3.org/2000/svg" xml:space="preserve" width="344.846" height="406.441"><path d="M-16.123 613.109c-2.352-.024-5.008 1.7-5.133 4.567 1.016-.21 2.441-.257 3.357-.725 1.494-.763 2.597-3.243 4.051-.333h1.323c-.125-2.416-1.77-3.491-3.598-3.51zm29.757 2.668c-2.128-.039-4.077 1.376-4.198 4.016l4.762 1.322.53-2.91 3.174 4.498c.076-1.76.764-3.776-.602-5.235-1.048-1.12-2.39-1.667-3.666-1.69zm-24.73 2.451c-1.74.017-3.457.119-5.132.317-3.323.393-8.51.686-8.732 4.952 10.77-1.368 20.86-.944 31.486 1.495 4.515 1.036 8.751 3.025 13.229 4.061 1.078-4.28-5.449-6.046-8.467-7.055-6.878-2.302-14.846-3.84-22.385-3.77zm18.416 3.946c3.42.28 9.701 2.091 11.377 5.291l-6.804-2.19-4.573-2.837zm-25.404 2.112c-2.666.021-5.934.222-7.61 1.52-2.393 1.853-2.175 8.638-2.705 11.449 4.347-.187 8.552-1.163 12.964-1.055 12.038.295 23.722 2.795 34.925 7.14.484-2.604.833-5.3 1.078-7.937.108-1.155.484-2.375-.216-3.425-1.67-2.506-7.13-3.388-9.857-4.171-8.557-2.457-17.316-3.53-26.194-3.517-.674.001-1.496-.011-2.385-.005zm-1.267 2.566c.218.006.464.034.741.084l-.264 2.646c3.304.42 3.03 3.166-.265 2.381-.265 2.097-.382 2.925-2.646 2.646l.265-2.646-2.646-.264c.027-2.255.944-2.2 2.91-2.117.223-1.75.38-2.774 1.905-2.73zm57.098 1.936-3.858.16-2.154 5.132-4.042 11.906-1.323 5.292 7.408-.265-6.35 17.198c2.72-2.003 4.714-5.572 6.827-8.202 3.7-4.602 9.17-9.474 11.694-14.816h-8.731l6.197-10.055 3.592-6.35zm-23.813 1.852c1.493.203 4.22.71 5.02 2.146 1.126 2.017-.503 6.18-.522 8.438-1.152-.1-3.266-.421-3.951-1.492-.518-.81.133-2.384.233-3.27.26-2.272.421-3.797-.78-5.822zm-9.26 1.853 7.937 1.058-.264 2.381-7.938-1.587zm-26.724 5.515c-2.358.031-4.92.28-6.193 1.387-1.184 1.03-1.035 4.585-1.201 6.062a530.238 530.238 0 0 0-1.623 16.669c-.5 6.215-1.29 12.549-1.3 18.785-.003 1.733-.858 4.764.007 6.304 1.642 2.928 8.092 4.353 11.105 5.107 11.455 2.867 22.726 3.015 34.131-.034-1.08-3.32-.728-6.352 1.403-9.256.795-1.085 2.283-1.87 2.68-3.19.464-1.547.708-4.87-1.172-5.28l-.197 4.751-4.037 6.625h-.264l2.38-41.275c1.101.165 3.303.631 3.85 1.735.588 1.185-.13 3.615-.297 4.88-.44 3.334-.436 6.707-.665 10.054-.116 1.685-1.219 5.718.817 6.35 1.23-5.167.956-11.343 1.347-16.669.101-1.381 1.058-4.465.233-5.651-1.608-2.316-7.486-3.11-10.046-3.836-8.854-2.51-18.082-3.477-27.252-3.477-.948 0-2.29-.06-3.705-.041zm2.413 3.912c1.064.064 2.021.771 2.615 2.479l-5.027.264-3.44 2.382c.653-2.293 3.51-5.266 5.852-5.125zm21.8 1.828c2.737.066 5.354 3.048 5.422 6.207-1.081-.625-1.689-1.726-2.656-2.506-1.874-1.51-4.029-1.727-6.34-1.727 1.064-1.432 2.331-2.005 3.575-1.974zm-22.264 4.367c.644.035 1.285.353 1.85 1.075 1.9 2.428 1.523 7.018.604 9.76-.313.937-1.684 2.339-1.56 3.288.087.667.82 1.406 1.127 2.005l-8.202-1.588v-.265l2.381-.793c-1.298-3.484-1.457-7.444.24-10.848.702-1.409 2.141-2.71 3.56-2.634zM1.13 649.74c.12-.003.243 0 .368.01 6.288.555 3.768 11.164 1.587 14.228l2.646 2.381c-3.874-1.26-6.649-.875-10.583-.794l2.116-1.587c-1.37-3.829-1.916-7.32.07-11.113.781-1.491 1.996-3.078 3.796-3.125zm-20.487 1.122c-.089.01-.181.03-.278.062-1.525.506-.967 3.235.722 2.57 1.266-.498.882-2.772-.444-2.632zm22.17 1.476c-1.93-.028-1.891 3.317.007 3.317 1.773 0 1.707-3.292-.007-3.317zm-15.677 9.299c.829-.106 1.626.36 1.926 1.812-3.273-1.01-2.226.934-1.323 2.91-.562.05-1.044.089-1.577-.162-2.826-1.33-.85-4.327.974-4.56zm-9.186 4.458c-.377 2.366 2.93 3.127 4.762 3.666 5.798 1.703 10.431.272 16.14-.227l-.794-1.587c2.757.023 4.843 1.532 3.969 4.498L.97 671.122H.44c-1.827 6.394-6.718 11.144-13.493 11.112-3.192-.016-8.283-1.756-8.996-5.291 2.634-1.616.583-9.116-2.91-7.938.101-1.857 1.053-2.809 2.91-2.91zm-11.377.793c-5.786.58-12.682 5.458-9.79 11.642.946-.666 2.264-1.559 2.903-2.538.676-1.035.46-2.208 1.418-3.203 2.387-2.483 5.296-1.884 5.469-5.9zm48.995 2.183c-.714-.014-1.28.251-1.494 1.008-.524 1.857 1.798 2.384 3.034 2.957 1.934.896 4.415 1.933 5.479 3.908.479.887.133 1.952.617 2.793.6 1.043 1.738 1.69 2.37 2.762h.53c2.895-5.525-1.043-8.972-5.82-11.56-.85-.46-3.144-1.839-4.716-1.868zm-35.237 1.522c1.24 5.357 12.869 5.903 15.346 1.058-5.547 1.033-9.957-.263-15.346-1.058zm38.894 5.556c-.825 1.967.317 2.64 2.117 2.646-.208-1.342-.976-1.984-2.117-2.646zm-56.551.902c-.683-.066-1.609.199-2.183.508-1.875 1.009-2.631 2.623-2.65 4.675l2.646-1.587c-2.214 3.285-2.27 6.075-.264 9.525-1.595-.037-2.14-1.13-2.91-2.382h-.265c-1.725 3.606 2.574 5.61 5.556 4.358.861-.361 2.147-.933 2.639-1.768 1.052-1.787.536-6.573.536-8.675 0-.719.201-1.878-.272-2.487-.43-.554-1.475-.568-2.11-.688.4-1.017-.04-1.414-.723-1.48zm25.065.156c-1.989.157-4.326.419-5.291 2.381 3.055 1.358 10.636 2.177 11.906-2.116-3.254-.672-4.459.1-7.408 1.323zm32.459 3.324a4.552 4.552 0 0 0-1.238.116l.53 1.323c-3.731.087-6.616 4.955-5.497 8.466.877 2.754 3.656 4.629 6.29 5.528 2.88.983 6.556-1.236 5.027-4.47-1.078 1.112-1.77 2.283-3.44 2.382 2.646-3.47 1.61-5.824.265-9.525l2.646 1.852c-.008-2.727-1.824-5.54-4.583-5.672zm-38.28 3.026 8.467.794c-1.665 3.376-6.91 1.841-8.466-.794zm-14.287 6.086c-2.086 4.97 4.134 7.51 7.673 8.815 9.667 3.565 20.565 4.49 30.692 2.663 2.62-.472 5.73-1.068 7.937-2.652 1.302-.934 2.537-2.464.794-3.535-1.518 4.343-7.49 4.56-11.377 5.292v-.265l6.13-3.403 4.982-1.888c-1.231-1.22-3.028-.132-4.498.26-3.576.955-7.432 1.316-11.112 1.568-10.316.706-22.273-1.633-31.22-6.855Zm13.23 14.022 3.439 8.996c-3.17-.847-6.926-1.952-10.054-.31-1.829.958-5.146 4.954-2.826 7.003 1.467 1.297 4.457 1.05 6.265.97 2.763-.121 5.632-.795 8.202-1.792.91-.353 2.325-.742 2.75-1.724.794-1.836-1.25-3.821-2.097-5.205-1.952-3.188-1.138-7.542-5.68-7.938zm20.637 1.323c.44 1.924 1.626 4.369 1.435 6.35-.156 1.624-2.164 3.548-1.327 5.233.573 1.154 2.736 1.556 3.86 1.904 3.153.976 11.067 2.701 13.562-.399.799-.991.227-2.577-.31-3.562-1.536-2.818-4.701-3.775-7.695-3.701-2.099.052-3.853 1.021-5.821 1.584 1.304-2.997-.161-7.379-3.704-7.409z" style="fill:#fff;fill-opacity:1;stroke:#888a85;stroke-width:.25;-inkscape-stroke:none" transform="matrix(3.77953 0 0 3.77953 166.371 -2316.788)"/></svg>