<svg xmlns="http://www.w3.org/2000/svg" xml:space="preserve" width="499.306" height="449.075"><path d="m-122.561 116.676 11.398-4.935 4.102-1.215-.125 2.39-2.27 6.658-9.698 27.98c1.078-.243 4.508-1.932 5.385-1.112.93.87-1.063 2.723-1.567 3.333-2.433 2.94-4.722 5.981-7.157 8.92-.667.805-2.414 3.761-3.702 3.336-1.05-.347-1.004-3.246-1.201-4.166-.644-3.008-.718-6.135-1.213-9.168-.217-1.33-.976-3.21-.506-4.55.654-1.86 3.45 1.447 3.915 2.168l.511-.048 4.611-22.347c-3.667 2.005-7.773 3.542-11.636 5.142-.951.394-3.09 1.897-4.11 1.224-.699-.462-.266-1.673-.103-2.303a312.588 312.588 0 0 1 1.844-6.876c2.039-7.193 3.82-14.463 5.768-21.682.624-2.315.942-6.865 2.667-8.603.696-.7 2.01-.601 2.922-.687l6.9-.646c.854-.08 2.563-.463 2.728.791.159 1.203-.873 3.107-1.293 4.231-1.197 3.207-2.374 6.428-3.61 9.62-1.596 4.125-3.351 8.288-4.56 12.545" style="fill:#fff;stroke:none;stroke-width:1" transform="matrix(3.77953 0 0 3.77953 703.183 -218.352)"/><path d="M-120.83 65.87c-2.364.573-3.256 2.915-4.433 4.887-2.812 4.712-5.49 9.52-8.216 14.287-11.006 19.256-21.938 38.618-33.245 57.68-3.217 5.423-6.331 10.925-9.464 16.404-1.255 2.194-2.428 5.06-.603 7.349 1.473 1.846 5.035 1.594 7.07 1.594h19.808c19.56 0 39.1-.265 58.668-.265h18.303c2.682 0 6.192.156 8.775-.628 2.657-.805 2.866-4.006 1.783-6.198-2.88-5.829-6.45-11.3-9.655-16.934-11.536-20.279-23.676-40.2-35.036-60.59-2.578-4.626-5.287-9.2-7.972-13.757-1.343-2.28-2.882-4.532-5.783-3.83m-.25-8c11.028-1.43 16.512 13.492 21.16 21.62 14.322 25.041 29.5 49.582 43.42 74.876 4.261 7.746 3.88 19.534-6.413 21.614-3.653.738-7.578.347-11.283.347h-19.807c-19.89 0-39.802.264-59.671.264h-15.294c-5.663 0-11.107.022-14.853-5.291-6.528-9.262 2.91-20.8 7.475-28.575a5639.641 5639.641 0 0 0 36.712-63.5c4.458-7.825 8.877-20.102 18.554-21.356" style="fill:#fff;stroke:none;stroke-width:.999997" transform="matrix(3.77953 0 0 3.77953 703.183 -218.352)"/></svg>