<?xml version="1.0" encoding="UTF-8" standalone="no"?>
<!-- Created with Inkscape (http://www.inkscape.org/) -->

<svg
   version="1.1"
   id="svg1"
   width="414"
   height="485"
   viewBox="0 0 414 485"
   sodipodi:docname="S3XY-Lightning.svg"
   xml:space="preserve"
   inkscape:version="1.4.2 (f4327f4, 2025-05-13)"
   xmlns:inkscape="http://www.inkscape.org/namespaces/inkscape"
   xmlns:sodipodi="http://sodipodi.sourceforge.net/DTD/sodipodi-0.dtd"
   xmlns="http://www.w3.org/2000/svg"
   xmlns:svg="http://www.w3.org/2000/svg"><defs
     id="defs1" /><sodipodi:namedview
     id="namedview1"
     pagecolor="#ffffff"
     bordercolor="#000000"
     borderopacity="0.25"
     inkscape:showpageshadow="2"
     inkscape:pageopacity="0.0"
     inkscape:pagecheckerboard="0"
     inkscape:deskcolor="#d1d1d1"
     showgrid="false"
     inkscape:zoom="0.93556701"
     inkscape:cx="69.476584"
     inkscape:cy="362.88154"
     inkscape:window-width="3840"
     inkscape:window-height="2054"
     inkscape:window-x="-11"
     inkscape:window-y="379"
     inkscape:window-maximized="1"
     inkscape:current-layer="g1" /><g
     inkscape:groupmode="layer"
     inkscape:label="Image"
     id="g1"><path
       id="path221"
       style="fill:#000000"
       d="m 103.88847,447.06087 c -9.122974,-2.63794 -8.231034,-13.2694 1.87559,-22.35612 9.14675,-8.22371 17.73075,-10.01471 31.3296,-6.53671 9.55082,2.44269 9.21251,2.44479 6.96083,-0.0433 -1.80085,-1.98992 -1.78877,-2.40125 0.46275,-15.75 2.77783,-16.46907 2.10738,-15.20672 8.07642,-15.20672 6.49474,0 6.47507,-0.0908 3.36659,15.53141 l -2.70684,13.6036 3.17052,6.18249 c 5.27143,10.27931 4.48014,12.31242 -6.84585,17.58938 -14.58904,6.79727 -35.35918,9.97303 -45.68961,6.98595 z m 111.70519,-10.48345 c -22.98585,-4.91474 -26.27807,-8.72885 -18.51585,-21.45097 2.9327,-4.80663 3.6005,-7.19392 5.03519,-18 2.10447,-15.85085 4.92329,-19.94803 13.73066,-19.95759 2.16582,-0.002 -3.9057,30.79774 -6.6027,33.49475 -2.68076,2.68075 -1.65292,2.65481 6.40469,-0.1616 19.31078,-6.74979 37.60152,0.7044 39.96651,16.28791 1.51941,10.01182 -17.36655,14.63085 -40.0185,9.7875 z M 62.921068,392.16551 c -2.30553,-0.92934 -7.3274,-7.59757 -7.3274,-9.7296 0,-0.69733 -0.50008,-1.26787 -1.11129,-1.26787 -0.72363,0 -0.88735,1.19375 -0.46932,3.42202 0.83663,4.45963 -0.55272,5.17812 -4.15374,2.14806 -9.09989,-7.65705 -6.15735,-29.82544 5.15578,-38.84238 3.6695,-2.9247 4.38493,-3.84689 2.57857,-3.32372 -4.51424,1.30743 -5.49345,1.13507 -5.80167,-1.0212 -1.05889,-7.40791 19.64347,-11.63783 26.30936,-5.37555 3.875428,3.64078 3.306908,5.37865 -1.50769,4.60876 -4.49509,-0.71879 -5.5788,0.87834 -1.24227,1.8308 15.514338,3.40752 26.400252,25.43436 13.242268,26.79474 -2.25019,0.23264 -2.47464,-0.0663 -2.2462,-2.99153 0.1396,-1.7875 0.0387,-3.25 -0.22432,-3.25 -1.40754,0 -3.52059,6.53137 -3.4618,10.70034 0.062,4.3973 0.16231,4.59009 1.19651,2.29966 1.56983,-3.47667 1.50328,-3.43786 3.31582,-1.9336 4.38107,3.63597 3.41777,10.84915 -1.80991,13.55249 -4.7814,2.47255 -9.466498,1.04262 -14.611838,-4.45967 -4.62728,-4.9483 -5.32415,-2.96121 -1.07107,3.05409 2.77225,3.9209 -1.07609,6.07522 -6.75979,3.78416 z m 72.672592,-16.96847 c -22.95544,-3.01093 -32.99356,-9.48399 -32.99844,-21.279 -0.002,-4.35131 -0.0648,-4.32658 4.78828,-1.87834 29.34851,14.80538 103.4128,4.55682 138.51222,-19.16646 7.77571,-5.2555 8.22015,-5.01591 7.47023,4.02713 -1.82549,22.01303 -70.83483,44.45317 -117.77229,38.29667 z m 2.38535,-5.64616 c -2.26305,-0.8026 -5.93459,-3.01707 -8.15896,-4.92105 -2.22437,-1.90399 -4.87278,-3.46713 -5.88535,-3.47366 -1.90451,-0.0123 -10.51433,-2.21873 -13.59104,-3.483 -2.82819,-1.16215 -2.14348,2.25524 1.10217,5.50088 3.14196,3.14196 10.49133,5.64281 20.3407,6.92154 9.32097,1.21012 10.77892,1.08188 6.19248,-0.54471 z m -12.02515,-17.85917 c -13.33773,-2.42071 -23.98115,-7.04017 -24.84197,-10.78191 -1.725845,-7.50177 -5.145327,-40.46903 -4.355533,-41.99176 1.551747,-2.99178 3.621763,-2.01275 4.228733,2 0.59215,3.91476 3.05704,22.41841 4.36257,32.74932 1.02102,8.07949 14.246,16.41936 14.246,8.98373 0,-17.3078 -20.931071,-140.74745 -24.465124,-144.2815 -0.1848,-0.1848 -2.63075,0.82683 -5.43544,2.24807 -5.89729,2.98839 -5.8435,2.71566 -3.08088,15.62094 2.79584,13.06044 8.98145,49.50048 8.98145,52.91062 0,2.3342 -1.47574,4.01882 -3.52052,4.01882 -0.19631,0 -0.66247,-2.1375 -1.0359,-4.75 -1.06719,-7.46606 -7.2248,-40.53249 -9.98915,-53.64186 -3.235358,-15.34303 -1.27166,-17.10535 33.482934,-30.0492 35.38108,-13.17719 97.04747,-22.03655 107.18331,-15.3986 5.43845,3.56163 30.96313,131.96937 29.67541,149.28895 -1.42441,19.15802 -83.24422,40.73191 -125.43589,33.07438 z m 70.81039,-30.69292 c 3.94742,-1.18268 8.82941,-4.90338 8.82941,-6.72914 0,-0.54664 -2.54545,-0.11812 -5.65655,0.95225 -3.28201,1.12918 -8.31944,1.94614 -12,1.94614 -4.91717,0 -6.34345,0.33084 -6.34345,1.47141 0,2.88624 8.82898,4.25933 15.17059,2.35934 z m 1.42159,-12.86246 c 12.388,-4.2621 24.0709,-16.5156 17.40782,-18.25804 -1.82207,-0.47648 -1.99804,-1.35427 -1.97804,-9.86663 0.0308,-13.08844 3.62277,-20.79889 7.76138,-16.66029 1.96605,1.96606 2.76749,-0.11102 1.1537,-2.99003 -1.74394,-3.11118 -6.02339,-5.48112 -8.31175,-4.603 -1.409,0.54069 -1.41447,0.76338 -0.0522,2.12569 7.20131,7.2013 -32.76589,19.36165 -54.20684,16.49288 -9.78649,-1.30942 -10.26175,-1.54535 -8.56995,-4.25435 1.11951,-1.79261 0.94443,-1.95452 -2.11354,-1.95452 -4.31681,0 -7.67386,3.51451 -8.37904,8.77206 -0.64929,4.84077 1.05506,6.32978 2.99884,2.61994 1.39756,-2.66734 1.39756,-2.66734 6.29749,5.64273 7.81782,13.25871 14.84375,19.47391 27.39992,24.23822 3.59349,1.36351 14.92341,0.64568 20.59218,-1.30466 z m -22.09218,-4.2387 c -4.90572,-2.01826 -9.5,-4.72393 -9.5,-5.59475 0,-3.37771 12.69049,-4.12055 18.37206,-1.07542 3.86959,2.07398 6.00654,1.91918 3.81128,-0.27609 -2.05351,-2.0535 -1.30652,-2.78333 2.84878,-2.78333 4.56153,0 9.82325,1.91287 11.79205,4.28693 3.57552,4.3115 -19.09668,8.82754 -27.32417,5.44266 z m -2.63684,-18.19706 c -14.71898,-2.93907 -15.09494,-6.53742 -0.73025,-6.98914 11.56644,-0.36373 20.3206,-2.23696 30.15573,-6.45279 l 4.71136,-2.01952 v 3.35367 c 0,8.44566 -18.90195,15.14986 -34.13684,12.10778 z m -25.86316,-27.41863 11.5,-0.69924 -4.8303,-1.34626 c -4.1897,-1.16772 -4.751,-1.62623 -4.23235,-3.45733 3.26977,-11.54407 1.52904,-16.57534 -5.75245,-16.62637 -4.91123,-0.0344 -5.19072,-1.53081 -1.19636,-6.4054 4.27047,-5.21154 3.76747,-6.98797 -2.74215,-9.68434 l -3.10902,-1.2878 2.71141,-0.72514 c 5.37949,-1.43869 13.82744,3.07947 17.73262,9.48382 2.60343,4.26952 2.57332,0.83785 -0.0376,-4.27988 -4.35589,-8.53825 -13.23119,-12.60119 -21.04385,-9.63345 -7.16584,2.72203 -8.83236,2.88736 -11.49815,1.14067 -2.92283,-1.91511 -3.49142,-0.28376 -1.03365,2.9657 2.99214,3.95597 -1.20343,5.01043 -5.73937,1.44247 -2.54089,-1.99867 -2.54089,-1.99867 -2.01192,0.0241 0.29094,1.11253 1.67574,2.92483 3.07735,4.02734 3.44373,2.70883 1.73243,4.67505 -2.71849,3.12345 -1.89516,-0.66065 -3.07577,-0.7027 -3.07577,-0.10954 0,1.66291 6.36067,4.92564 9.6101,4.92955 3.02479,0.004 3.12531,0.1511 3.66458,5.37613 0.55096,5.33833 3.29808,11.94814 6.86277,16.51246 2.45453,3.14284 2.35142,3.95434 -0.59643,4.6942 -1.35244,0.33944 -2.94684,1.205 -3.54311,1.92346 -0.88244,1.06327 -0.37845,1.12065 2.70898,0.30845 2.08621,-0.54881 8.96811,-1.31249 15.29311,-1.69708 z m 42.17126,-0.76888 c 6.53761,-5.91646 -2.60512,-16.72458 -9.53586,-11.27285 -3.25532,2.56063 -2.19109,4.91633 1.25016,2.76724 4.49961,-2.81005 8.53934,4.34872 4.1779,7.4036 -1.12791,0.79001 -1.7536,1.73352 -1.39043,2.09669 1.15698,1.15697 3.6113,0.71297 5.49823,-0.99468 z m 18.1773,-10.33631 c 3.21671,-1.63128 8.09146,-3.26349 10.83279,-3.62714 3.36732,-0.4467 4.55187,-0.94632 3.65145,-1.54012 -0.73304,-0.48341 -3.3755,-0.6163 -5.87213,-0.29532 l -4.53933,0.58361 0.0393,-8.29941 0.0393,-8.29941 -4.5,-0.92202 c -5.83749,-1.19608 -5.72476,-0.906 -2.12055,-5.45668 3.93243,-4.96509 3.90808,-5.35745 -0.5609,-9.04116 -3.04736,-2.5119 -3.39145,-3.14584 -1.99776,-3.68065 3.80011,-1.45824 10.18787,2.21349 13.8845,7.9809 1.92323,3.00058 1.9631,3.01358 1.39754,0.45574 -0.4938,-2.23325 -0.12253,-2.82335 2.44571,-3.88715 3.18162,-1.31786 4.95146,-3.67284 4.95146,-6.58846 0,-1.52832 -0.28163,-1.47548 -2.31445,0.43426 -2.8427,2.67057 -5.21549,2.91311 -4.15111,0.42431 1.88809,-4.41486 1.75305,-7.92666 -0.216,-5.61704 -4.51011,5.29019 -6.46861,5.00846 -5.7369,-0.82525 l 0.66573,-5.30771 -2.40982,3.5 c -2.00846,2.91707 -3.16766,3.58791 -6.96007,4.02782 -16.22915,1.88254 -18.93162,29.07715 -4.22792,42.54521 3.08735,2.8279 3.4592,3.59111 2.38206,4.889 -1.70187,2.05062 -1.46436,1.9857 5.31704,-1.45333 z m -89.04611,-43.35447 c 1.01274,-2.63916 10.0172,-7.61647 15.85771,-8.76552 6.64028,-1.3064 7.54268,-2.04302 5.2776,-4.30809 -4.34501,-4.34501 -16.29092,1.43956 -21.25174,10.29073 -1.27269,2.27076 -1.88334,4.12865 -1.35699,4.12865 0.52635,0 1.18938,-0.6056 1.47342,-1.34577 z m 95.70758,-18.14215 c -5.46625,-6.58642 -21.31559,-9.3701 -23.3383,-4.09899 -0.87139,2.27078 0.24852,2.56386 7.72019,2.02034 5.76143,-0.41912 7.8659,-0.14558 11.10808,1.4438 4.90863,2.4063 6.12195,2.57709 4.51003,0.63485 z M 67.343668,330.42905 c -3.1625,-0.19845 -5.75,-0.52278 -5.75,-0.72074 0,-15.67195 31.855128,-58.89927 40.137622,-54.46661 5.19295,2.77918 3.41062,10.48865 -3.691588,15.96797 -9.537496,7.35812 -18.557204,21.19479 -22.082994,33.87638 -0.93002,3.3451 -1.95467,5.9969 -2.27699,5.89291 -0.32233,-0.104 -3.17355,-0.35146 -6.33605,-0.54991 z M 246.25761,215.18315 c -2.22038,-7.98627 -2.47446,-7.06844 4.48915,-16.21622 8.25887,-10.8493 20.88031,-31.8663 23.75822,-39.56176 1.28289,-3.43042 2.60803,-6.23712 2.94476,-6.23712 1.87673,0 11.13954,5.71567 11.14155,6.87495 0.0142,8.21381 -34.19903,61.12505 -39.5244,61.12505 -0.62993,0 -1.8941,-2.69321 -2.80928,-5.9849 z m 177.12742,-5.7651 c -3.52566,-3.1625 -11.33353,-10.07056 -17.35083,-15.35125 -6.01729,-5.28068 -14.71269,-12.93068 -19.3231,-17 -4.61041,-4.06931 -10.28558,-8.97375 -12.61149,-10.89875 -2.3259,-1.925 -8.13066,-6.82309 -12.89945,-10.88464 -4.7688,-4.06156 -8.80983,-7.21156 -8.98007,-7 -0.17024,0.21155 -1.30147,6.66778 -2.51385,14.34719 -1.21238,7.6794 -2.44057,14.19878 -2.72931,14.48752 -0.28874,0.28874 -11.47849,-10.7194 -24.86612,-24.46254 l -24.34114,-24.98753 3.162,-2.66724 3.162,-2.66724 2.63842,2.49743 c 4.52786,4.28591 9.82507,4.26826 14.60337,-0.0486 4.8639,-4.39424 5.39645,-4.42716 8.67065,-0.536 3.10564,3.69085 2.85651,4.27526 5.57517,-13.07831 2.95216,-18.843989 2.79854,-18.608913 7.82074,-11.967737 4.62044,6.109897 8.63717,11.387197 23.48315,30.852857 5.61467,7.36182 13.1335,17.32408 16.7085,22.13836 3.575,4.81428 9.89095,13.19098 14.03545,18.61488 4.1445,5.4239 12.64727,16.61164 18.89504,24.86164 6.24776,8.25 12.27275,16.0125 13.38885,17.25 3.97337,4.40554 -0.22269,2.1558 -6.52798,-3.5 z M 77.064468,195.12081 c -2.64605,-4.28141 -6.24495,-21.55084 -4.73119,-22.70276 2.6759,-2.03627 2.93753,-1.65082 5.26039,7.75 1.2231,4.95 2.388488,9 2.589748,9 1.55139,0 11.41025,-5.65801 11.41025,-6.54836 0,-0.62244 -0.84065,-4.4662 -1.8681,-8.54168 -2.91144,-11.5485 -3.31129,-14.70626 -2.1394,-16.89595 0.86638,-1.61884 0.77161,-2.01401 -0.483,-2.01401 -2.41336,0 0.91796,-5.83183 4.00088,-7.00395 1.32803,-0.50491 4.11897,-2.01105 6.202104,-3.34696 3.06143,-1.9633 5.54413,-2.53236 12.95073,-2.96845 9.67734,-0.56979 13.46423,-1.90173 16.98268,-5.9732 2.21524,-2.56344 13.82951,-5.83863 31.3541,-8.84179 10.46646,-1.79361 46.70418,-1.81918 49.83466,-0.0352 2.9351,1.67268 4.41064,5.21578 8.71943,20.93731 4.62881,16.88917 5.10133,15.57447 -5.30409,14.75767 -32.26322,-2.53257 -94.97086,11.7144 -125.488684,28.51061 -4.80628,2.64525 -8.987008,4.40776 -9.290508,3.91668 z M 109.59366,166.3455 c 7.65794,-2.1676 9.54959,-3.07569 9.75573,-4.68323 0.58601,-4.56985 -0.81632,-4.74058 -12.6065,-1.5348 -6.15042,1.67232 -11.385954,3.04058 -11.634524,3.04058 -0.24856,0 -0.24106,0.675 0.0167,1.5 0.25774,0.825 0.679493,2.175 0.937232,3 0.627141,2.00743 2.368008,1.83728 13.531382,-1.32255 z m 89.23411,-9.74489 c 0.31209,-0.31209 0.12375,-2.17434 -0.41853,-4.13833 -1.12928,-4.08991 -0.13772,-5.25369 4.49778,-5.27892 5.73922,-0.0312 3.36329,-6.4396 -2.52805,-6.81866 -4.50552,-0.28989 -4.74348,-0.45676 -5.36337,-3.76104 -1.29109,-6.88211 -7.71859,-5.87905 -6.76801,1.0562 0.58822,4.29148 0.58822,4.29148 -3.53286,4.98773 -6.86116,1.15919 -5.21568,7.16858 1.82372,6.66032 4.22067,-0.30475 4.32565,-0.20704 5.49074,5.11014 0.57405,2.61981 4.95493,4.02621 6.79858,2.18256 z m -132.711412,8.31744 c -0.87489,-1.2375 -2.25933,-4.53336 -3.07654,-7.32414 -1.0927,-3.73161 -2.80532,-6.3387 -6.47294,-9.85362 -9.57336,-9.17476 -7.06318,-15.52286 6.15179,-15.5575 12.5203,-0.0328 17.185068,3.25594 9.89409,6.97552 -5.22641,2.66631 -5.06871,3.03982 0.98091,2.32333 5.40813,-0.64051 5.71906,-0.38415 3.60412,2.97159 -3.13814,4.97925 -3.06012,7.51084 0.11699,3.79612 5.254478,-6.14361 6.948008,-1.63436 2.904478,7.73358 -4.445628,10.29952 -10.449178,14.10316 -14.102898,8.93512 z M 293.03171,154.26593 c -8.65685,-2.17234 -16.36971,-8.38544 -17.81127,-14.34788 -0.76854,-3.17874 -0.22109,-3.31409 4.84417,-1.19769 5.42082,2.26496 6.66142,1.1901 2.02522,-1.75466 -20.98156,-13.3268 -12.58527,-39.503674 8.98622,-28.01604 14.96045,7.96702 9.09435,19.3319 -6.12548,11.86739 -8.58602,-4.21097 -6.56829,-0.17367 2.89309,5.78884 4.68761,2.9541 5.75283,4.12604 5.76532,6.34289 0.0119,2.10632 0.22949,2.38116 0.96549,1.21927 1.07423,-1.69583 13.0192,9.17674 13.0192,11.85036 0,1.44691 -5.27897,1.24213 -9.25,-0.35882 -3.52338,-1.42047 -1.67809,1.5735 2,3.24498 4.96632,2.25692 4.83763,2.10442 3.17708,3.76497 -1.86196,1.86195 -6.5733,2.579 -10.48904,1.59639 z M 84.547776,142.88625 c -4.61845,-3.63944 -6.416428,-10.2597 -3.45411,-12.7182 1.19671,-0.99319 1.80328,-0.99319 3,0 1.24895,1.03654 1.5,0.90757 1.5,-0.77057 0,-4.60386 5.64039,-2.75929 8.50571,2.78161 3.673187,7.10317 -3.6738,15.33899 -9.5516,10.70716 z m 16.472944,-6.41956 c -2.098843,-1.56226 -2.472828,-4.34932 -0.6602,-4.92002 4.91513,-1.54752 5.58773,-2.40401 1.48314,-1.88863 -5.202733,0.65327 -5.768666,-1.5317 -1.6611,-6.41326 3.14717,-3.74021 1.70134,-4.03328 -2.491702,-0.50506 -5.428432,4.56772 -6.878022,-0.73697 -3.019512,-11.04976 5.600154,-14.967735 12.236854,-15.148467 16.872774,-0.45948 1.70785,5.41134 2.96151,7.53138 5.67952,9.60451 6.16123,4.6994 7.98864,10.55825 4.32681,13.87216 -2.19724,1.98848 -18.36099,3.37383 -20.52973,1.75954 z m 26.57294,-9.76384 c 0,-0.80587 -1.35,-3.00277 -3,-4.88202 -4.32813,-4.92946 -4.15995,-5.09231 8.75,-8.47301 32.29666,-8.45746 65.8505,-7.65436 70.68358,1.69179 2.95349,5.71141 3.11222,5.65706 -15.51266,5.3116 -18.67501,-0.3464 -31.65644,1.05173 -49.75097,5.35827 -12.20065,2.90378 -11.16995,2.81212 -11.16995,0.99337 z m -53.787492,-0.7223 c -2.5886,-2.58859 -1.46555,-9.75946 2.08442,-13.30942 4.735998,-4.73601 16.997578,-7.83399 14.854388,-3.75308 -0.50548,0.9625 -1.24719,3.775 -1.64825,6.25 -1.18687,7.32441 -3.83965,9.20152 -5.65291,4 -1.18681,-3.40448 -1.56638,-3.5288 -4.350148,-1.42473 -1.35361,1.02311 -2,2.68223 -2,5.1335 0,3.85794 -1.30307,5.08817 -3.2875,3.10373 z m 179.217392,-2.5625 C 251.10675,120.4898 209.4546,64.766731 197.89655,49.668048 154.50474,-7.0161869 156.40791,-3.7331869 177.76925,14.948023 c 4.57843,4.00399 20.92441,17.98846 36.32441,31.0766 l 28,23.79663 1.25361,-7.576602 c 0.68949,-4.167133 1.74265,-10.614103 2.34035,-14.326608 1.30932,-8.13247 2.20161,-8.35736 7.93545,-2 5.09151,5.645165 17.65108,18.942481 27.30419,28.908017 l 6.9336,7.15801 -2.22959,3.131167 c -1.22627,1.722141 -2.7188,5.705423 -3.31674,8.851738 -1.07845,5.674818 -1.12542,5.733021 -5.87256,7.277105 l -4.7854,1.55653 -4.77689,-4.849805 c -5.73505,-5.822606 -5.18562,-6.659185 -8.84472,13.467245 -1.47491,8.1125 -2.80081,14.75 -2.94646,14.75 -0.14565,0 -1.07487,-1.2375 -2.06494,-2.75 z m 57.08925,-1.87371 c -2.64162,-2.64162 -0.20697,-10.55065 4.63584,-15.05968 7.28211,-6.780201 15.08045,-3.71559 13.39581,5.26433 -0.53077,2.82924 -0.94516,3.33666 -2.00595,2.45628 -1.04134,-0.86424 -1.82037,-0.32748 -3.52294,2.42733 -3.87696,6.27306 -9.0925,8.322 -12.50276,4.91174 z m -8.76914,-11.82994 c -6.51489,-5.66066 -0.30188,-16.898009 10.07815,-18.228158 6.73663,-0.863264 11.15362,6.204075 5.37375,8.598178 -3.34106,1.38391 -8.30982,6.30491 -10.33529,10.23596 l -1.36661,2.65233 z m -12.55764,-7.84159 c -7.77182,-8.27272 6.32908,-25.588633 15.17278,-18.63218 3.53567,2.781159 3.32467,4.144051 -1.08524,7.009877 -2.14246,1.392303 -5.00503,4.716334 -6.75,7.838155 -3.59112,6.424648 -4.4438,6.864398 -7.33754,3.784148 z m -123.61522,-1.25339 c -2.93572,-11.696842 21.28396,-14.753503 25.88025,-3.266237 2.10517,5.261347 1.97834,5.814867 -1.3324,5.814867 -5.77663,0 -9.27902,-1.24393 -10.3943,-3.691704 -1.61466,-3.543806 -7.67436,-2.944904 -9.52816,0.941704 -1.64383,3.44639 -3.78752,3.53971 -4.62539,0.20137 z" /></g></svg>
