<svg xmlns="http://www.w3.org/2000/svg" xml:space="preserve" width="397.12" height="461.579"><path d="M-150.653 606.716c-1.293-.01-2.591.226-3.672.655-2.658 1.056-2.168 2.944-3.666 4.769-1.334 1.624-3.251 1.943-4.222 4.1-4.816 10.695-5.232 23.589-6.816 35.19-.468 3.427.067 8.433-1.33 11.585-.606 1.367-3.59 1.836-4.868 2.401-3.795 1.678-8.511 4.235-9.18 8.768-.616 4.164 2.01 7.626 2.654 11.566.247 1.514-2.143 3.251-2.157 5.103-.05 6.76 7.275 7.662 12.122 6.085 1.683 3.536 5.241 5.442 8.732 6.826 1.325.525 3.328.825 4.384 1.814 1.298 1.214 1.816 4.73 1.966 6.442-2.396 0-4.424.144-6.615 1.235-4.257 2.12-8.855 9.753-3.703 13.41 4.868 3.455 14.198 1.597 19.314-.412 2.281-.897 5.052-1.972 5.465-4.708.695-4.61-4.315-8.884-4.936-13.494l12.435.794c.29 1.974 1.407 4.065 1.243 6.085-.22 2.7-2.71 5.42-.976 8.191 1.135 1.813 3.643 2.51 5.554 3.142 5.12 1.69 14.248 3.371 18.774-.572 5.33-4.645-1.542-12.177-6.339-13.616-2.54-.763-4.83-.43-7.408-.32-.134-.996-.906-2.673-.445-3.621.468-.962 2.695-1.057 3.62-1.332 2.6-.775 5.924-1.964 7.144-4.572 4.746 1.295 11.656.887 11.837-5.82.05-1.844-2.018-3.695-1.568-5.293 1.297-4.598 5.314-8.456 2.97-13.493-1.248-2.682-3.457-4.5-5.83-6.16-1.138-.794-3.313-1.586-3.597-3.105-.415-2.22.426-5.161.64-7.404.44-4.588.921-9.171 1.413-13.758.733-6.847 2.31-13.328 1.334-20.109-.476-3.315-.449-6.27-4.024-7.937.357-1.842 1.046-4.081-.002-5.82-2.938-4.875-10.365-4.503-12.168.793-6.824-2.612-14.735-3.175-21.96-3.175h-.001c-.45-2.99-3.274-4.21-6.118-4.233zm.407 1.51c1.324.04 2.677.356 3.48 1.226.753.815.524 2.424 1.734 2.74 3.452.899 7.747.402 11.344.908 4.159.584 8.3 2.25 12.436 2.611.624-4.61 5.597-5.796 8.935-2.545 1.924 1.873-.22 4.24.643 6.225.824 1.896 3.14 2.428 3.564 4.787 2.02 11.206-1.196 23.494-2.339 34.925-.31 3.096-1.41 7.227-.884 10.291.234 1.362 2.793 2.22 3.84 2.901 2.951 1.925 6.598 4.855 6.456 8.768-.138 3.819-3.21 6.72-4.187 10.318-.453 1.67 2.04 3.01 1.951 5.028-.261 5.975-7.03 5.698-10.835 3.704-1.156 4.426-8.429 6.178-12.436 6.35l1.588 7.144c4.485-.604 8.837-1.037 12.41 2.427 2.2 2.133 4.32 7.088.815 9.067-4.506 2.544-12.027 1.278-16.665-.208-1.635-.524-4.385-1.21-4.912-3.088-.696-2.476 1.021-4.337 1.345-6.61.201-1.408-.557-3.141-.897-4.498-.243-.969-.39-2.334-1.203-3.016-1.036-.87-3.382-.424-4.652-.424-3.305 0-7.14-.117-10.318-1.058.055 2.65 1.103 6.17 2.44 8.466 1.223 2.104 3.363 4.174 2.747 6.878-.478 2.1-3.14 2.875-4.923 3.522-4.575 1.66-13.054 3.473-17.434.45-5.028-3.47 1.792-10.461 5.263-11.679 2.198-.77 4.362-.407 6.615-.229-1.065-2.403-1.192-7.322-3.046-9.112-1.03-.993-3.303-1.255-4.627-1.79-3.932-1.584-7.572-3.677-8.996-7.883-3.887 2.212-11.242 2.53-11.362-3.705-.042-2.192 2.602-3.307 2.258-5.292-.622-3.588-3.463-7.125-3.018-10.847.549-4.58 5.449-6.89 9.212-8.5 1.454-.623 4.392-.92 4.954-2.64 1.247-3.82 1.04-8.682 1.44-12.673.587-5.836 1.59-11.667 2.49-17.462.74-4.774 1.229-9.154 3.285-13.494.658-1.388.45-2.937 1.436-4.232 1.012-1.33 2.984-1.716 3.854-3.015 1.39-2.075.806-4.016 3.972-4.572a11.188 11.188 0 0 1 2.227-.165zm-.32 1.794c-1.642.087-3.35 1.271-3.759 2.78 1.61-.032 3.553.09 3.704-1.851l2.646.264c-.644-.903-1.606-1.245-2.591-1.193zm33.42 3.257c-.501-.018-.972.078-1.356.325-.804.516-1.1 1.797-1.427 2.638l3.704 1.588.794-3.175 2.116.794c-.545-1.05-2.326-2.118-3.83-2.17zm-28.729.827c-.614 0-1.226.009-1.835.023-4.15.102-11.18.287-11.642 5.553 3.62-.156 7.208-.966 10.848-1.055 6.803-.166 13.994 1.01 20.637 2.434 6.08 1.302 11.972 4.464 17.992 5.5-.039-4.62-4.716-6.233-8.467-7.656-8.569-3.25-18.319-4.813-27.533-4.8zm21.977 4.518c3.858.52 10.763 2.428 12.7 6.085-5.11-.512-8.24-4.09-12.7-5.82zm-28.42 2.096c-2.814-.003-6.32.16-8.019 1.535-.967.783-1.063 2.376-1.29 3.512-.64 3.19-1.42 6.529-1.43 9.79 5.188-1.278 10.598-1.18 15.876-.818 9.084.623 18.223 1.837 26.987 4.448 3.248.968 6.29 2.589 9.525 3.514.238-3.011.872-6.005 1.289-8.996.19-1.369.611-2.945-.233-4.184-1.849-2.715-7.878-3.642-10.845-4.554-9.506-2.923-19.45-4.23-29.37-4.227-.69 0-1.552-.02-2.49-.02zm-1.24 2.682c.305-.058.64.12.994.673.442.692-.034 2.012-.173 2.75 3.86.718 3.074 2.647-.53 2.647 0 2.3-.26 2.908-2.645 2.91l.265-3.175-2.91-.265c.11-2.4 1.353-2.38 3.439-2.38.006-.69.645-2.987 1.56-3.16zm61.145 3.315c-.766-.014-1.513.054-2.005.38-1.437.955-2.05 4.758-2.58 6.343-1.956 5.847-4.608 11.72-5.997 17.727h8.202l-6.88 18.786c4.422-3.577 7.81-9.384 11.453-13.759 2.821-3.386 7.088-7.111 8.92-11.112h-9.26c1.454-4.564 5.414-9.193 7.995-13.23 1.01-1.579 2.42-3.182 2.853-5.026h-10.583c-.566 0-1.351-.096-2.118-.11zm-24.34 1.167c1.67.544 4.604 1.104 5.613 2.674 1.378 2.144-.8 7.53-.851 10.026-1.117-.306-3.518-.807-4.225-1.774-.69-.941.139-3.255.322-4.311.468-2.695.605-4.228-.86-6.615zm-8.273 2.392c.456.01.874.056 1.129.099.795.133 1.59.264 2.38.42 1.157.227 2.325.415 3.44.793-.14.584-.146 1.719-.688 2.086-.954.645-7.33-.595-8.036-1.487-1.307-1.653.407-1.942 1.775-1.911zm-32.442 6.037c-2.28.047-4.5.365-5.696 1.357-.71.59-.712 2.07-.837 2.914-.403 2.726-.665 5.475-1.06 8.202-1.413 9.759-1.68 19.605-2.833 29.369-.308 2.617-1.888 8.93-.105 11.085 1.517 1.833 4.627 2.918 6.795 3.74 6.041 2.292 12.866 3.76 19.315 4.201 5.578.382 11.41.386 16.933-.608 1.378-.247 4.07-.168 5.122-1.204.752-.74-.153-4.286.265-5.572 1.221-3.762 5.228-5.805 5.485-9.525.122-1.774.744-3.328-1.347-3.97 0 1.673.345 4.244-.536 5.742-1.538 2.615-4.148 3.807-4.49 7.223h-.265c0-14.781 1.001-30.687 3.704-45.243 1.233.292 3.578.799 4.063 2.144.617 1.71-.4 4.792-.579 6.587-.538 5.383-1.103 10.725-1.103 16.14l1.323.264c.044-5.357.729-11.092 1.435-16.404.25-1.876 1.484-5.92.65-7.645-.517-1.07-2.133-1.422-3.143-1.827-2.713-1.089-5.364-2.02-8.203-2.733-9.652-2.425-18.975-3.284-28.84-3.959-1.433-.098-3.773-.324-6.053-.278zm2.86 4.375c1.541-.136 3.06.57 3.988 2.542-3.8-.163-6.485-.25-8.996 3.175h-.265c.069-2.927 2.703-5.49 5.272-5.717zm24.677 2.254c1.515.074 3.095.82 4.154 1.9 1.327 1.353 1.734 3.171 1.88 5.002-1.46-.838-2.315-2.43-3.705-3.41-1.807-1.277-3.959-1.352-6.084-1.352.793-1.614 2.241-2.214 3.755-2.14zm-24.494 4.294c.119.005.24.018.365.04 1.8.318 2.557 2.326 2.937 3.891 1.068 4.395-.52 8.358-2.936 11.907l1.852 2.116c-3.037-1.245-5.715-1.852-8.996-1.852l2.646-1.323c-1.104-4.044-1.414-7.72.472-11.641.699-1.453 1.873-3.214 3.66-3.138zm23.656 2.175c.784-.001 1.58.299 2.318 1.022 2.46 2.409 2.378 7.474 1.405 10.524-.335 1.054-1.489 2.348-1.496 3.43-.007 1.101 1.786 2.163 2.264 3.185-4.177-1.411-7.318-1.686-11.642-.794.572-1.16 1.419-1.557 2.646-1.852-2.008-3.929-1.954-8.541.21-12.436.9-1.617 2.57-3.077 4.295-3.08zm-22.684.794c-.1-.001-.205.01-.317.034-1.634.356-1.293 3.632.493 3.084 1.452-.445 1.32-3.108-.176-3.118zm24.355 1.949a1.423 1.423 0 0 0-.352.027c-1.776.353-1.699 3.767.26 3.574 1.869-.184 1.75-3.511.092-3.601zm-18.2 11.236c.632-.005 1.201.416 1.44 1.536-2.442-.695-2.443.873-1.587 2.646-4.21-.319-1.75-4.167.147-4.182zm-21.843 3.388c-6.058 1.401-13.918 5.152-11.113 12.435l3.433-2.542 1.387-3.254 5.756-3.568zm12.158.93c.254.009.523.05.806.128l-1.058 1.058v.265c7.399 4.099 14.98 4.24 23.019 2.381l-.794-1.587c2.886.061 5.128 1.993 4.233 5.027l-1.852-1.852c-1.725 10.02-14.992 16.034-22.742 8.442-.471-.462-1.107-1.085-1.137-1.794-.032-.787.923-1.35 1.064-2.155.5-2.87-1.16-7.931-4.437-6.61.087-1.861 1.122-3.369 2.898-3.303zm41.418 2.733c-.828-.049-1.515.283-1.798 1.367-.506 1.941 2.229 2.491 3.52 3.094 3.015 1.408 6.742 3.34 5.82 7.222l3.176 3.175h.264c4.436-5.835-1.923-10.685-6.879-13.164-.95-.475-2.722-1.613-4.103-1.694zm-54.105 1.893c-2.08.358-4.308 1.33-5.027 3.44l4.762 2.38zm15.61.265c.932 6.305 13.286 5.547 16.404 1.323-5.918 1.115-10.645-.476-16.404-1.323zm-20.108 5.142c-2.582.167-5.472 3.097-4.763 5.706l2.91-1.588c-2.988 3.889-1.85 6.143-.529 10.319-1.638-.39-2.335-1.546-3.175-2.91-2.872 3.613 2.55 6.018 5.557 4.999 1.009-.342 2.6-.918 3.168-1.881 1.252-2.123.347-6.75.58-9.204.084-.873.543-2.239-.051-3.02-.488-.64-1.653-.627-2.374-.684v-.265c.822-.82-.466-1.527-1.323-1.472zm62.177.414v2.91l2.646-.264c-.523-1.33-1.28-2.181-2.646-2.646zm-29.568 1.29c-1.852-.086-3.623.837-5.357 1.885l.794-1.852c-2.3.002-4.724.348-5.821 2.646 4.89 1.334 8.721 1.768 12.964-1.588v-.264c-.88-.54-1.738-.787-2.58-.826zm29.303 3.472.53 1.323c-1.727.326-3.169.638-4.29 2.127-4.09 5.433-.85 12.404 5.877 13.427 3.186.485 5.507-1.836 4.762-4.97h-.529c-.864 1.265-1.607 2.329-3.175 2.645 1.996-4.274 2-6.036 0-10.318l3.175 1.852c-.01-3.763-2.677-6.084-6.35-6.086zm-40.216 3.175 8.995 1.059c-1.745 3.357-7.771 2.053-8.995-1.059zm-16.14 5.557c0 1.265-.217 2.772.267 3.968 1.446 3.573 6.742 5.072 10.052 6.174 9.86 3.284 21.489 4.577 31.75 2.61 2.895-.555 6.258-.89 8.73-2.646 1.558-1.105 2.388-2.594.53-3.756-.816 4.503-8.686 5.26-12.435 5.556v-.265l7.143-3.66 5.028-1.631c-.799-1.411-2.145-.555-3.44-.269-3.253.72-6.496 1.013-9.79 1.402-8.856 1.049-18.81-.412-27.252-3.163-3.615-1.178-6.984-3.282-10.583-4.32zm44.715 2.38.264.53h-.529zm-30.428 12.965c.793 3.46 1.76 6.846 3.705 9.79-3.186-.737-6.481-2.148-9.79-.994-2.16.754-7.897 5.688-4.437 8.114 2.228 1.562 6.649 1.02 9.2.773 2.207-.214 8.653-1.133 9.628-3.451.829-1.97-1.391-4.018-2.278-5.5-2.077-3.47-1.149-8.333-6.028-8.732zm24.815 1.592c-.284-.028-.59.03-.917.193-1.447.726.81 5.307.639 6.682-.223 1.788-2.245 3.58-1.599 5.528.421 1.27 2.418 1.602 3.52 1.969 3.686 1.227 8.032 2.02 11.907 1.336 1.233-.218 2.928-.427 3.729-1.514 1.62-2.205-1.73-5.716-3.464-6.68-3.912-2.174-7.804-.805-11.642.684.173-.699.59-1.395.636-2.117.093-1.471-.823-5.882-2.809-6.08z" style="fill:#fff;fill-opacity:1;stroke:#888a85;stroke-width:.25;-inkscape-stroke:none" transform="matrix(3.77953 0 0 3.77953 697.797 -2292.626)"/></svg>