<?xml version="1.0" encoding="UTF-8" standalone="no"?>
<!-- Created with Inkscape (http://www.inkscape.org/) -->

<svg
   version="1.1"
   id="svg1"
   width="414"
   height="485"
   viewBox="0 0 414 485"
   sodipodi:docname="battery_S3XY.svg"
   xml:space="preserve"
   inkscape:version="1.4.2 (f4327f4, 2025-05-13)"
   xmlns:inkscape="http://www.inkscape.org/namespaces/inkscape"
   xmlns:sodipodi="http://sodipodi.sourceforge.net/DTD/sodipodi-0.dtd"
   xmlns="http://www.w3.org/2000/svg"
   xmlns:svg="http://www.w3.org/2000/svg"><defs
     id="defs1" /><sodipodi:namedview
     id="namedview1"
     pagecolor="#ffffff"
     bordercolor="#000000"
     borderopacity="0.25"
     inkscape:showpageshadow="2"
     inkscape:pageopacity="0.0"
     inkscape:pagecheckerboard="0"
     inkscape:deskcolor="#d1d1d1"
     showgrid="false"
     inkscape:zoom="0.93556701"
     inkscape:cx="411.51515"
     inkscape:cy="448.39118"
     inkscape:window-width="3840"
     inkscape:window-height="2054"
     inkscape:window-x="-11"
     inkscape:window-y="379"
     inkscape:window-maximized="1"
     inkscape:current-layer="g1" /><g
     inkscape:groupmode="layer"
     inkscape:label="Image"
     id="g1"><path
       style="fill:#000000"
       d="m 100.15345,455.83155 c -8.182985,-1.72166 -10.612008,-3.87733 -10.953441,-9.7208 -1.130207,-19.34295 22.715821,-30.73178 47.105931,-22.49773 6.20039,2.09323 7.08782,1.38113 3.38041,-2.71257 -1.97334,-2.17897 -4.37003,-8.99157 -10.30944,-29.30472 -0.63299,-2.16489 0.70828,-2.21084 7.30969,-0.25043 5.04585,1.49846 5.05089,1.50423 6.77202,7.75 3.72481,13.51688 6.93489,21.46336 10.62457,26.30086 4.17167,5.46942 6.91681,11.19142 6.91681,14.41745 0,8.62352 -42.6399,19.84853 -60.84655,16.01794 z M 247,453.0831 c -28.69888,-2.16261 -39.7105,-10.18478 -33.5987,-24.47728 l 3.5322,-8.26009 -2.96399,-12 c -1.6302,-6.6 -2.96524,-12.3163 -2.96676,-12.70289 -0.002,-0.56742 9.90771,0.039 10.72739,0.65647 1.78597,1.34535 6.79846,22.79815 5.67327,24.28088 -2.85731,3.76525 -1.28519,4.00452 6.34659,0.96594 21.50289,-8.56136 44.34252,0.28446 47.75925,18.49722 1.87114,9.97405 -10.94204,14.81567 -34.50925,13.03975 z m -72.5,-69.80422 c -1.1,-0.16197 -6.95,-0.7952 -13,-1.40719 -51.79661,-5.23945 -86.453394,-21.97915 -86.490231,-41.77596 -0.01193,-6.40967 -0.713351,-6.41795 13.117278,0.1547 46.255223,21.98158 135.368893,27.9038 167.768383,11.14937 3.41532,-1.76613 8.16526,1.51852 5.06481,3.50238 -2.40301,1.53759 -11.36132,4.74057 -15.35335,5.48947 -2.45613,0.46078 -4.46821,1.70007 -5.89633,3.6317 -2.76792,3.74381 -9.86309,8.08214 -15.98924,9.7766 -8.33377,2.30508 -4.24084,2.34894 6.86905,0.0736 21.21165,-4.34419 28.00539,-7.69452 31.35045,-15.46046 l 1.69392,-3.93263 2.18263,2.18263 c 13.10911,13.10912 -52.72694,32.298 -91.31737,26.61579 z m 105.50404,-26.18315 c -17.78173,-9.20428 -23.89444,-20.07625 -19.04514,-33.87339 4.02054,-11.43915 11.0076,-19.36393 17.08052,-19.37287 2.10617,-0.003 2.5327,-0.46824 2.5,-2.72628 -0.11924,-8.23544 16.85319,-0.22675 21.58211,10.18383 2.83055,6.23138 1.67658,12.59863 -1.52323,8.40477 -4.95199,-6.49036 -9.64533,-6.6929 -5.66124,-0.24431 5.28856,8.55999 5.13387,19.57389 -0.38922,27.71261 -1.34692,1.9848 -2.12924,3.80632 -1.73849,4.04781 1.63281,1.00914 7.04938,-2.41752 9.1217,-5.77061 3.42128,-5.53575 5.99897,-3.38255 4.63765,3.87393 -2.11802,11.29001 -13.38924,14.58444 -26.56466,7.76451 z M 167.5,353.30705 c -54.54621,-5.49129 -93.055354,-20.61995 -92.024443,-36.15261 0.248544,-3.74479 0.93336,-16.03371 1.521814,-27.30871 0.588454,-11.275 1.507458,-26.35 2.04223,-33.5 0.534773,-7.15 1.210032,-16.375 1.500576,-20.5 0.290544,-4.125 0.949962,-11.55 1.465374,-16.5 0.515411,-4.95 1.634546,-16.65 2.486966,-26 5.635629,-61.81594 4.780951,-59.06789 19.144593,-61.55568 22.32729,-3.8671 58.56759,-2.66822 95.86289,3.17128 36.51383,5.71714 81.5,19.39792 81.5,24.78503 0,0.92558 -1.10962,14.26408 -2.46582,29.64112 -1.3562,15.37704 -2.77522,34.61185 -3.15337,42.74402 -0.73633,15.83478 -0.86759,16.24005 -4.77826,14.75322 -2.09957,-0.79825 -2.48131,-1.48035 -2.10271,-3.75715 0.25441,-1.53001 0.95056,-11.78184 1.54699,-22.78184 0.59642,-11 1.95047,-28.48761 3.00898,-38.86137 1.05851,-10.37375 1.70799,-19.21179 1.44329,-19.64009 -0.50403,-0.81553 -12.9076,-5.99854 -14.35524,-5.99854 -1.28822,0 -5.7187,51.15498 -8.57428,99 -3.08206,51.63948 -3.13168,73.34437 -0.14045,61.42636 0.35787,-1.42589 1.75772,-4.3462 3.11078,-6.48957 1.35305,-2.14338 2.46009,-4.31849 2.46009,-4.83358 0,-0.5151 0.3375,-1.08654 0.75,-1.26988 0.4125,-0.18333 2.6625,-2.46078 5,-5.06099 l 4.25,-4.72765 v -9.46333 c 0,-9.88329 0.62422,-11.38802 3.97933,-9.59242 1.69647,0.90792 2.01928,2.07853 2.01198,7.29624 -0.0181,12.92027 -0.83183,15.93245 -5.12309,18.96361 -10.46834,7.39436 -17.76122,28.89153 -13.36822,39.40545 0.825,1.97451 1.5,3.70546 1.5,3.84656 0,1.06198 -10.97436,4.09988 -22,6.09 -24.61768,4.44346 -42.99562,5.23676 -66.5,2.87052 z m -4.82735,-35.14112 c 6.69661,-3.11263 5.16955,-4.62654 -3.90819,-3.87452 -8.2348,0.68218 -12.44523,0.10294 -20.26446,-2.78784 -4.61792,-1.70725 -5.05587,-1.56502 -3.59367,1.16714 3.72295,6.95639 18.38134,9.85742 27.76632,5.49522 z M 167.5,303.48638 c 15.04927,-4.02001 29.10081,-18.15333 36.67582,-36.88926 2.65752,-6.57307 3.05079,-6.76077 6.28853,-3.00139 l 2.36842,2.75 0.69203,-2.75 c 1.52208,-6.04858 -3.03793,-13.00327 -9.70262,-14.79788 -5.87814,-1.58282 -7.76579,-0.58545 -4.82218,2.54788 2.19022,2.33138 2.20923,2.4767 0.3998,3.05526 -1.04489,0.3341 -3.0248,1.06825 -4.3998,1.63146 -17.39696,7.12583 -57.40918,3.6243 -74,-6.47584 -5.5079,-3.3531 -5.73406,-3.7055 -4.4671,-6.96088 1.74312,-4.47887 -6.83956,-0.73087 -9.06484,3.95855 -2.18198,4.59818 -1.13199,7.8231 1.43785,4.41618 1.51966,-2.01465 2.09859,-2.19269 3.93469,-1.21004 7.55952,4.04574 12.89355,34.08531 6.05241,34.08531 -7.29177,0 8.12075,14.03221 20.10699,18.30624 8.41442,3.00041 20.19779,3.55212 28.5,1.33441 z M 150,298.82499 c -15.6715,-2.6273 -18.72769,-5.80339 -9.84636,-10.23266 7.97957,-3.97955 17.37595,-4.42551 15.05851,-0.71469 -2.14742,3.43855 -1.29643,4.13233 2.03785,1.66137 7.61475,-5.64314 14.22879,-6.98177 21.67489,-4.38684 11.71371,4.08217 -13.90301,16.19121 -28.92489,13.67282 z m -1.46108,-24.05393 c -14.41046,-2.19053 -18.28704,-4.31521 -20.51216,-11.24233 -1.63207,-5.08089 -1.24878,-5.24551 6.67011,-2.86481 13.13989,3.95031 33.59873,5.34999 46.74156,3.19778 6.86552,-1.12427 7.59668,-0.81777 4.97211,2.08431 -6.20867,6.86512 -23.7993,10.96418 -37.87162,8.82505 z M 156,241.20399 c 0,-0.35295 -1.35,-1.93187 -3,-3.50869 -5.25659,-5.02348 -2.22903,-11.50687 4.23416,-9.06729 5.20515,1.96473 4.96728,-2.62777 -0.248,-4.78801 -9.15307,-3.79133 -16.47483,8.24433 -9.3498,15.36937 2.37138,2.37137 8.36364,3.80045 8.36364,1.99462 z m 42.84914,-4.45413 c 8.89666,-0.99796 13.89739,-0.83119 23.15086,0.77203 3.5,0.60639 3.5,0.60639 1.59501,-1.53488 -1.04774,-1.17771 -2.66024,-2.14128 -3.58333,-2.14128 -2.91587,0 -2.85235,-0.93135 0.52077,-7.63562 3.20216,-6.3645 5.0872,-15.13444 4.75333,-22.11438 -0.14707,-3.07461 0.0326,-3.25 3.32904,-3.25 3.97766,0 8.02268,-1.83697 10.79808,-4.90375 2.30811,-2.55044 1.56121,-3.68795 -1.38591,-2.1107 -1.24755,0.66767 -3.46264,0.85804 -5.29673,0.45521 l -3.15244,-0.6924 2.59173,-2.12418 C 234.44013,189.60894 238,184.03958 238,182.34827 c 0,-0.32823 -1.6875,0.71881 -3.75,2.32677 -5.79483,4.51773 -13.252,5.02983 -8.82843,0.60626 1.95657,-1.95657 3.58096,-5.70708 3.57346,-8.25067 -0.004,-1.29341 -0.52661,-1.06781 -2.25,0.9709 -4.03443,4.77259 -6.2669,5.29617 -12.0233,2.81984 -12.96464,-5.57724 -26.21857,1.8491 -30.19364,16.91789 -1.45194,5.50402 -0.77806,6.82235 1.20452,2.35647 2.10895,-4.75051 7.09961,-9.99037 11.5819,-12.16021 6.72195,-3.25404 14.39127,-2.49937 8.43549,0.83006 -1.2375,0.69179 -3.2647,2.52916 -4.50489,4.08304 l -2.25489,2.82524 5.1369,5.62059 c 5.95435,6.515 6.03439,6.25618 -2.53942,8.21188 -7.9931,1.82323 -9.02562,12.45247 -1.98342,20.41814 2.05288,2.32208 1.87892,2.49334 -3.85428,3.79448 -2.8875,0.65531 -6.375,2.11881 -7.75,3.25222 -1.81045,1.49234 -1.98997,1.89531 -0.65086,1.46099 1.01703,-0.32986 6.19203,-1.0869 11.5,-1.6823 z m -67.48751,-5.40413 c -0.31659,-0.825 -0.97746,-1.5 -1.46862,-1.5 -1.78322,0 -0.82793,-2.18388 1.99393,-4.55832 17.20457,-14.47669 10.25338,-52.44168 -9.6018,-52.44168 -6.4119,0 -11.23393,-3.3353 -11.31555,-7.82673 -0.0263,-1.44609 -0.1784,-1.41852 -1.12042,0.20312 -0.78926,1.35867 -0.78087,2.9082 0.0304,5.61602 1.46789,4.89937 1.44992,5.00759 -0.83144,5.00759 -1.07353,0 -3.6026,-1.6875 -5.62016,-3.75 l -3.668291,-3.75 0.718321,3.5 c 0.81819,3.98668 3.09829,8 4.54504,8 0.53732,0 0.97695,0.45857 0.97695,1.01905 0,1.45157 -4.96035,0.15941 -8.25,-2.14911 -2.607195,-1.8296 -2.75,-1.83596 -2.75,-0.12238 0,2.83372 2.778376,6.09873 7.03971,8.2727 3.5741,1.82337 3.86261,2.27022 3.38099,5.23661 l -0.52655,3.24313 1.43221,-3.07772 c 3.38097,-7.26543 11.21323,-13.42228 17.07478,-13.42228 3.3804,0 3.2847,0.45894 -0.85329,4.09214 -5.49459,4.82432 -5.48181,6.39093 0.0984,12.05633 5.47527,5.55885 5.37317,5.80776 -3.22892,7.87137 L 114,204.16516 v 4.80326 c 0,2.6418 0.89343,7.06993 1.98541,9.84029 l 1.98541,5.03702 -6.73541,0.0153 c -7.34143,0.0167 -11.09436,1.25474 -7.06994,2.3323 1.28399,0.34379 3.97463,0.63123 5.97919,0.63874 3.88742,0.0146 16.72049,3.595 18.30534,5.1072 1.53185,1.46163 3.54295,1.05166 2.91163,-0.59355 z m 100.31755,-68.21616 c -5.95162,-9.42797 -21.79243,-15.57761 -28.15053,-10.92845 -3.48742,2.55006 -1.20039,4.32 6.57168,5.08584 8.05514,0.79373 16.68725,4.52194 20.87985,9.018 3.31582,3.55583 3.73788,1.63851 0.699,-3.17539 z M 118.57109,151.37134 c 3.70086,-1.2578 6.58213,-1.50955 11.56428,-1.01041 7.34646,0.736 9.25182,-0.32489 6.34743,-3.53421 -4.76862,-5.26926 -19.16186,-2.72845 -26.2328,4.63083 -5.27774,5.49295 -5.45815,7.17594 -0.42891,4.00112 2.1016,-1.32668 6.0391,-3.16598 8.75,-4.08733 z M 40.70752,344.81208 c -4.635849,-2.51531 -7.703933,-7.29048 -7.688469,-11.96635 0.01073,-3.24537 1.424643,-7.05144 2.218171,-5.97104 0.190282,0.25907 1.565602,2.37518 3.056268,4.70246 2.354451,3.67586 6.842132,6.46629 8.205968,5.10246 0.223475,-0.22348 -0.800488,-2.84483 -2.275473,-5.82524 -4.976685,-10.05605 -4.110507,-20.95565 2.364882,-29.75864 2.559141,-3.47903 -0.07669,-2.70751 -4.546649,1.33082 l -3.963543,3.58083 -0.629632,-2.50865 c -2.018884,-8.04388 10.0141,-20.2444 19.196291,-19.46357 3.818908,0.32475 7.150051,3.59643 4.604666,4.52247 -2.598705,0.94544 -1.10236,2.2881 2.55,2.2881 6.093015,0 6.161445,0.2551 5.607293,20.9032 -0.759943,28.31605 -0.143611,26.18136 -8.832467,30.59159 -9.077985,4.60775 -14.652147,5.3012 -19.867306,2.47156 z M 305.4505,304.12774 c -1.63166,-2.49211 -3.59058,-4.35143 -8.33358,-7.90985 -1.00413,-0.75335 -1.43403,-2.5796 -1.29472,-5.5 0.38394,-8.0481 -7.43801,-15.49564 -23.15561,-22.04723 -12.31773,-5.13442 -12.1344,-4.99924 -12.4828,-9.20444 -0.67553,-8.15358 3.06989,-8.97665 15.9354,-3.50189 11.71298,4.98432 18.93234,9.5194 27.44952,17.24334 9.91474,8.99134 12.41767,20.91484 6.28067,29.92007 l -2.57741,3.78202 z M 33.236081,289.54193 c -11.503275,-14.96481 3.686587,-34.86084 34.105983,-44.67279 8.893448,-2.86864 7.14288,9.84214 -1.902624,13.81485 C 51.812406,264.66886 47,269.20791 47,276.07605 c 0,3.02909 -0.549212,3.94599 -3.430072,5.72646 -1.88654,1.16595 -4.776534,3.65344 -6.422209,5.52776 -2.169908,2.47139 -3.244811,3.07914 -3.911638,2.21166 z M 280,285.84573 c 0,-5.5564 0.29945,-5.77846 4.26562,-3.16317 7.09106,4.67583 7.40479,8.16317 0.73438,8.16317 h -5 z m 34.11086,-38.75 c 0.90756,-2.35149 9.41942,-25.27051 13.46284,-36.25 0.70892,-1.925 3.33442,-9.2375 5.83445,-16.25 l 4.5455,-12.75 h -15.0934 c -15.0934,0 -15.0934,0 -14.59079,-2.25 0.67448,-3.01936 28.43575,-84.464 29.22665,-85.74371 0.39229,-0.63474 10.56303,-1.00629 27.54582,-1.00629 h 26.9239 l -2.09686,3.75 c -4.84276,8.66074 -7.54741,13.1315 -11.94802,19.75 -2.55985,3.85 -5.62951,8.8 -6.82147,11 -1.19196,2.2 -3.46409,6.025 -5.04917,8.5 -1.58508,2.475 -5.14151,8.325 -7.90317,13 l -5.02121,8.5 16.93703,0.27361 c 9.31537,0.15049 16.93704,0.49765 16.93704,0.77147 0,0.44666 -7.91852,10.82853 -12.16411,15.9482 -2.37798,2.86755 -13.36457,16.36788 -16.68842,20.50672 -19.23003,23.94518 -33.65889,42.06307 -38.12602,47.87373 -5.78718,7.52771 -7.66289,8.91652 -5.91059,4.37627 z M 278,149.18642 c -11.10004,-4.80469 -26.66228,-9.89269 -42.5,-13.89518 -17.00796,-4.29823 -23.31768,-5.46623 -48.5,-8.97793 -27.24967,-3.79998 -68.82406,-4.26695 -84.49963,-0.9491 -3.849791,0.81484 -7.562291,1.48152 -8.249996,1.48152 -3.520303,0 3.939416,-42.422843 8.061246,-45.843654 9.53167,-7.910588 96.22157,-7.178779 106.68838,0.900629 6.62577,5.114478 7.88258,5.426776 22,5.46664 13.01393,0.03675 13.75807,0.154027 20.66761,3.257255 3.94219,1.77052 7.64555,3.21913 8.22968,3.21913 0.58413,0 2.01312,1.86423 3.17553,4.14273 1.74242,3.41544 1.83377,4.0354 0.52032,3.53138 -1.98206,-0.76058 -1.97853,-0.55013 0.0627,3.73029 1.54871,3.24768 1.53686,4.35779 -0.1832,17.16338 -2.12706,15.83562 -2.40667,15.14664 7.29107,17.96585 6.68306,1.94281 5.93882,2.90346 7.90866,-10.20835 1.65308,-11.00336 3.93995,-13.99771 6.95931,-9.11227 3.19655,5.17212 -3.51523,29.90948 -7.63164,28.12768 z m -24.19899,-32.9579 0.30101,-4.11721 -14.08305,-2.22748 C 223.96955,107.34533 223,107.47411 223,112.14441 v 3.36145 l 13.25,2.57536 c 17.09404,3.32252 17.17326,3.31416 17.55101,-1.8527 z m -126.99797,-0.64547 c 0.57636,-0.69447 1.19396,-3.05697 1.37245,-5.25 l 0.32451,-3.98732 5.75,-0.2999 5.75,-0.29991 v -3.84311 c 0,-4.28041 -1.03232,-5.05708 -6.72169,-5.05708 h -3.55812 l 0.55648,-5.39169 c 0.54888,-5.318138 0.51683,-5.399609 -2.34916,-5.972809 -4.4553,-0.891059 -5.49811,0.01032 -6.50155,5.619729 l -0.92596,5.1763 -5.10835,-0.28239 c -8.60946,-0.47592 -9.28481,7.45722 -0.7394,8.68547 l 4.84775,0.69678 -0.3353,5.14455 c -0.28132,4.31649 -0.0399,5.22081 1.5,5.61831 3.3738,0.87088 5.08199,0.7159 6.13834,-0.55693 z M 284,114.14693 c -6.48757,-2.33946 -18.20691,-20.39576 -15.7702,-24.29757 1.6959,-2.715556 2.6088,-2.542837 6.58761,1.24637 3.88698,3.70174 3.91749,1.08686 0.0514,-4.40437 -2.6484,-3.76167 -2.55335,-3.84563 4.3537,-3.84563 6.66943,0 6.40089,-1.368635 -0.72251,-3.682273 -7.5467,-2.451123 -3.85355,-6.795211 7.61609,-8.958484 21.6432,-4.082091 28.05614,3.818801 14.86996,18.320132 -3.90222,4.291415 -4.82721,6.065585 -5.39536,10.348505 -1.20063,9.05079 -6.02684,16.88487 -9.79103,15.89317 -0.16481,-0.0434 -0.97466,-0.32235 -1.79966,-0.61985 z M 255.03478,86.047698 c -5.42029,-2.662211 -6.78904,-5.939204 -4.73047,-11.325448 3.57412,-9.351673 11.41095,-13.306666 11.95869,-6.035165 0.14063,1.866822 0.35629,1.967925 1.58239,0.741825 4.78226,-4.782261 7.97184,3.934429 4.168,11.390576 -3.48369,6.828593 -6.91003,8.208837 -12.97861,5.228212 z M 219,81.18442 c -8.81821,-1.837858 -7.97025,-10.783892 2.0082,-21.186606 1.41975,-1.480116 2.8839,-5.181958 3.9614,-10.015693 4.80235,-21.543691 17.18762,-19.41032 25.50526,4.393296 3.59934,10.300683 1.68346,12.655286 -5.93047,7.288493 -2.48275,-1.75 -4.84537,-2.850533 -5.25028,-2.445627 -0.4049,0.404906 -0.18471,1.077026 0.48932,1.4936 1.82085,1.125346 6.21657,7.332407 6.21657,8.778223 0,0.82531 -1.97116,1.364751 -5.75,1.573587 -5.88294,0.325118 -5.56016,1.161551 0.85777,2.222754 4.47022,0.73915 4.47747,5.002007 0.0114,6.70984 C 238.12739,81.140358 222.75143,81.966278 219,81.18442 Z M 105.50358,71.851528 C 95.954684,56.401085 151.48713,46.390499 200.5,54.726947 c 16.43103,2.794703 15.38221,2.281628 12.25683,5.995922 -1.37061,1.628885 -3.33911,5.021204 -4.37443,7.538486 -2.14547,5.216512 -1.5424,5.089643 -14.95626,3.146371 -28.7309,-4.162259 -59.06279,-4.205506 -80.82871,-0.115245 -3.66588,0.688896 -6.85812,0.940467 -7.09385,0.559047 z M 272.57143,64.274301 C 271.68986,63.392737 271,61.021324 271,58.872503 c 0,-3.226717 -0.50834,-4.152225 -3.22555,-5.872643 -3.60642,-2.283427 -4.73295,-1.564577 -4.75914,3.036853 -0.008,1.480041 -0.45601,2.963351 -0.99464,3.296244 C 260.46144,60.296611 257,57.953912 257,55.934977 c 0,-1.012213 -1.125,-4.384211 -2.5,-7.49333 -1.375,-3.109119 -2.5,-5.925578 -2.5,-6.258798 0,-4.193972 19.19982,2.326014 23.13861,7.857547 4.36132,6.124903 2.06361,18.864695 -2.56718,14.233905 z M 120.43551,45.248983 c 2.07235,-11.303848 13.20473,-17.022612 26.26087,-13.490348 7.35177,1.98898 12.27336,13.087095 5.80362,13.087095 -1.375,0 -2.5,-0.45 -2.5,-1 0,-2.436926 -4.11701,-5 -8.03138,-5 -4.0839,0 -4.30361,0.208977 -5.36795,5.105751 -0.50864,2.340167 -1.15417,2.670642 -6.33352,3.242427 -3.17193,0.350172 -6.84267,0.934048 -8.15719,1.297502 -2.30209,0.636508 -2.36371,0.517187 -1.67445,-3.242427 z"
       id="path2" /></g></svg>
